<svg width="533" height="393" viewBox="0 0 533 393" fill="none" xmlns="http://www.w3.org/2000/svg">
<g clip-path="url(#clip0_30_41)">
<rect width="533" height="393" rx="42" fill="white"/>
<rect width="533" height="393" fill="#0051FF"/>
<rect x="19" y="19" width="495" height="354" rx="26" fill="#D5D7CE"/>
<g filter="url(#filter0_d_30_41)">
<rect width="394.719" height="64.2198" rx="32.1099" transform="matrix(0.999999 0.00124221 -0.00338601 0.999994 65.433 115.857)" fill="#B7B5A7"/>
</g>
<g filter="url(#filter1_d_30_41)">
<rect x="129.669" y="179.981" width="269.967" height="95.053" rx="47.5265" transform="rotate(-3.26725 129.669 179.981)" fill="#C9C8BE"/>
</g>
<path d="M87.71 160.27C86.83 160.27 86.14 160.03 85.64 159.55C85.16 159.05 84.92 158.34 84.92 157.42V141.7C84.92 140.78 85.16 140.08 85.64 139.6C86.14 139.1 86.86 138.85 87.8 138.85H97.79C98.51 138.85 99.05 139.03 99.41 139.39C99.77 139.75 99.95 140.27 99.95 140.95C99.95 141.65 99.77 142.19 99.41 142.57C99.05 142.93 98.51 143.11 97.79 143.11H90.44V147.37H97.13C97.83 147.37 98.36 147.55 98.72 147.91C99.1 148.27 99.29 148.79 99.29 149.47C99.29 150.17 99.1 150.7 98.72 151.06C98.36 151.42 97.83 151.6 97.13 151.6H90.44V157.42C90.44 159.32 89.53 160.27 87.71 160.27ZM112.259 160.33C110.119 160.33 108.239 159.88 106.619 158.98C104.999 158.06 103.739 156.78 102.839 155.14C101.959 153.5 101.519 151.59 101.519 149.41C101.519 147.77 101.769 146.28 102.269 144.94C102.789 143.6 103.519 142.45 104.459 141.49C105.419 140.53 106.559 139.8 107.879 139.3C109.199 138.78 110.659 138.52 112.259 138.52C114.399 138.52 116.269 138.97 117.869 139.87C119.489 140.77 120.749 142.04 121.649 143.68C122.549 145.3 122.999 147.21 122.999 149.41C122.999 151.05 122.739 152.54 122.219 153.88C121.719 155.22 120.989 156.38 120.029 157.36C119.089 158.32 117.959 159.06 116.639 159.58C115.319 160.08 113.859 160.33 112.259 160.33ZM112.259 155.71C113.319 155.71 114.219 155.46 114.959 154.96C115.699 154.46 116.269 153.74 116.669 152.8C117.069 151.86 117.269 150.73 117.269 149.41C117.269 147.43 116.829 145.89 115.949 144.79C115.069 143.69 113.839 143.14 112.259 143.14C111.219 143.14 110.319 143.39 109.559 143.89C108.819 144.37 108.249 145.08 107.849 146.02C107.449 146.94 107.249 148.07 107.249 149.41C107.249 151.39 107.689 152.94 108.569 154.06C109.449 155.16 110.679 155.71 112.259 155.71ZM129.018 160.27C128.138 160.27 127.458 160.03 126.978 159.55C126.498 159.05 126.258 158.36 126.258 157.48V141.64C126.258 140.74 126.498 140.05 126.978 139.57C127.478 139.09 128.168 138.85 129.048 138.85H136.428C138.828 138.85 140.678 139.44 141.978 140.62C143.298 141.78 143.958 143.4 143.958 145.48C143.958 146.82 143.658 147.99 143.058 148.99C142.478 149.97 141.628 150.73 140.508 151.27C139.408 151.79 138.048 152.05 136.428 152.05L136.668 151.51H138.108C138.968 151.51 139.728 151.72 140.388 152.14C141.048 152.54 141.598 153.16 142.038 154L143.538 156.7C143.858 157.28 144.008 157.85 143.988 158.41C143.968 158.95 143.748 159.4 143.328 159.76C142.928 160.1 142.338 160.27 141.558 160.27C140.778 160.27 140.138 160.11 139.638 159.79C139.158 159.47 138.728 158.97 138.348 158.29L135.618 153.28C135.378 152.84 135.068 152.54 134.688 152.38C134.328 152.2 133.908 152.11 133.428 152.11H131.778V157.48C131.778 158.36 131.548 159.05 131.088 159.55C130.628 160.03 129.938 160.27 129.018 160.27ZM131.778 148.21H135.438C136.498 148.21 137.308 148 137.868 147.58C138.428 147.16 138.708 146.51 138.708 145.63C138.708 144.79 138.428 144.16 137.868 143.74C137.308 143.3 136.498 143.08 135.438 143.08H131.778V148.21ZM149.99 160.27C149.19 160.27 148.57 160.05 148.13 159.61C147.71 159.17 147.5 158.55 147.5 157.75V141.1C147.5 140.28 147.73 139.66 148.19 139.24C148.65 138.8 149.3 138.58 150.14 138.58C150.84 138.58 151.39 138.72 151.79 139C152.21 139.26 152.59 139.7 152.93 140.32L159.38 151.9H158.33L164.75 140.32C165.11 139.7 165.49 139.26 165.89 139C166.31 138.72 166.87 138.58 167.57 138.58C168.37 138.58 168.98 138.8 169.4 139.24C169.84 139.66 170.06 140.28 170.06 141.1V157.75C170.06 158.55 169.85 159.17 169.43 159.61C169.01 160.05 168.39 160.27 167.57 160.27C166.77 160.27 166.15 160.05 165.71 159.61C165.29 159.17 165.08 158.55 165.08 157.75V147.43H165.71L160.88 155.83C160.6 156.27 160.3 156.6 159.98 156.82C159.68 157.04 159.27 157.15 158.75 157.15C158.25 157.15 157.84 157.04 157.52 156.82C157.2 156.6 156.91 156.27 156.65 155.83L151.79 147.4H152.48V157.75C152.48 158.55 152.27 159.17 151.85 159.61C151.43 160.05 150.81 160.27 149.99 160.27ZM174.943 160.27C174.323 160.27 173.803 160.13 173.383 159.85C172.963 159.55 172.703 159.15 172.603 158.65C172.503 158.13 172.593 157.55 172.873 156.91L180.343 140.83C180.703 140.05 181.143 139.48 181.663 139.12C182.203 138.76 182.813 138.58 183.493 138.58C184.173 138.58 184.763 138.76 185.263 139.12C185.783 139.48 186.233 140.05 186.613 140.83L194.083 156.91C194.403 157.55 194.513 158.13 194.413 158.65C194.333 159.17 194.083 159.57 193.663 159.85C193.263 160.13 192.763 160.27 192.163 160.27C191.363 160.27 190.743 160.09 190.303 159.73C189.883 159.37 189.503 158.79 189.163 157.99L187.543 154.18L189.643 155.71H177.283L179.413 154.18L177.793 157.99C177.433 158.79 177.063 159.37 176.683 159.73C176.303 160.09 175.723 160.27 174.943 160.27ZM183.433 144.61L179.953 152.92L179.113 151.48H187.843L187.003 152.92L183.493 144.61H183.433ZM202.201 160.27C201.321 160.27 200.641 160.03 200.161 159.55C199.681 159.05 199.441 158.36 199.441 157.48V143.35H194.731C193.991 143.35 193.421 143.16 193.021 142.78C192.641 142.38 192.451 141.82 192.451 141.1C192.451 140.36 192.641 139.8 193.021 139.42C193.421 139.04 193.991 138.85 194.731 138.85H209.671C210.411 138.85 210.971 139.04 211.351 139.42C211.751 139.8 211.951 140.36 211.951 141.1C211.951 141.82 211.751 142.38 211.351 142.78C210.971 143.16 210.411 143.35 209.671 143.35H204.961V157.48C204.961 158.36 204.731 159.05 204.271 159.55C203.811 160.03 203.121 160.27 202.201 160.27ZM216.528 160.27C215.648 160.27 214.968 160.03 214.488 159.55C214.008 159.05 213.768 158.35 213.768 157.45V141.4C213.768 140.48 214.008 139.78 214.488 139.3C214.968 138.82 215.648 138.58 216.528 138.58C217.428 138.58 218.108 138.82 218.568 139.3C219.048 139.78 219.288 140.48 219.288 141.4V157.45C219.288 158.35 219.058 159.05 218.598 159.55C218.138 160.03 217.448 160.27 216.528 160.27ZM233.313 160.33C231.173 160.33 229.293 159.88 227.673 158.98C226.053 158.06 224.793 156.78 223.893 155.14C223.013 153.5 222.573 151.59 222.573 149.41C222.573 147.77 222.823 146.28 223.323 144.94C223.843 143.6 224.573 142.45 225.513 141.49C226.473 140.53 227.613 139.8 228.933 139.3C230.253 138.78 231.713 138.52 233.313 138.52C235.453 138.52 237.323 138.97 238.923 139.87C240.543 140.77 241.803 142.04 242.703 143.68C243.603 145.3 244.053 147.21 244.053 149.41C244.053 151.05 243.793 152.54 243.273 153.88C242.773 155.22 242.043 156.38 241.083 157.36C240.143 158.32 239.013 159.06 237.693 159.58C236.373 160.08 234.913 160.33 233.313 160.33ZM233.313 155.71C234.373 155.71 235.273 155.46 236.013 154.96C236.753 154.46 237.323 153.74 237.723 152.8C238.123 151.86 238.323 150.73 238.323 149.41C238.323 147.43 237.883 145.89 237.003 144.79C236.123 143.69 234.893 143.14 233.313 143.14C232.273 143.14 231.373 143.39 230.613 143.89C229.873 144.37 229.303 145.08 228.903 146.02C228.503 146.94 228.303 148.07 228.303 149.41C228.303 151.39 228.743 152.94 229.623 154.06C230.503 155.16 231.733 155.71 233.313 155.71ZM249.893 160.27C249.053 160.27 248.413 160.05 247.973 159.61C247.533 159.17 247.313 158.52 247.313 157.66V141.31C247.313 140.43 247.533 139.76 247.973 139.3C248.413 138.82 248.993 138.58 249.713 138.58C250.353 138.58 250.853 138.7 251.213 138.94C251.573 139.18 251.973 139.58 252.413 140.14L261.923 152.02H261.083V141.16C261.083 140.32 261.293 139.68 261.713 139.24C262.153 138.8 262.793 138.58 263.633 138.58C264.473 138.58 265.103 138.8 265.523 139.24C265.963 139.68 266.183 140.32 266.183 141.16V157.78C266.183 158.54 265.983 159.15 265.583 159.61C265.183 160.05 264.643 160.27 263.963 160.27C263.283 160.27 262.743 160.15 262.343 159.91C261.963 159.65 261.553 159.25 261.113 158.71L251.603 146.8H252.443V157.66C252.443 158.52 252.223 159.17 251.783 159.61C251.363 160.05 250.733 160.27 249.893 160.27ZM289.431 160.33C287.011 160.33 284.951 159.88 283.251 158.98C281.571 158.08 280.291 156.82 279.411 155.2C278.531 153.58 278.091 151.69 278.091 149.53C278.091 147.85 278.351 146.34 278.871 145C279.411 143.64 280.181 142.48 281.181 141.52C282.181 140.54 283.401 139.8 284.841 139.3C286.301 138.78 287.951 138.52 289.791 138.52C290.791 138.52 291.811 138.62 292.851 138.82C293.891 139 294.911 139.35 295.911 139.87C296.431 140.11 296.781 140.45 296.961 140.89C297.161 141.31 297.221 141.76 297.141 142.24C297.081 142.7 296.911 143.13 296.631 143.53C296.371 143.91 296.011 144.17 295.551 144.31C295.091 144.43 294.571 144.36 293.991 144.1C293.391 143.82 292.741 143.61 292.041 143.47C291.341 143.31 290.601 143.23 289.821 143.23C288.481 143.23 287.361 143.47 286.461 143.95C285.581 144.43 284.921 145.14 284.481 146.08C284.041 147.02 283.821 148.17 283.821 149.53C283.821 151.57 284.321 153.11 285.321 154.15C286.321 155.19 287.801 155.71 289.761 155.71C290.361 155.71 291.011 155.65 291.711 155.53C292.431 155.41 293.151 155.24 293.871 155.02L292.851 157.09V151.96H290.751C290.071 151.96 289.541 151.79 289.161 151.45C288.801 151.11 288.621 150.63 288.621 150.01C288.621 149.39 288.801 148.92 289.161 148.6C289.541 148.26 290.071 148.09 290.751 148.09H295.191C295.891 148.09 296.421 148.28 296.781 148.66C297.161 149.02 297.351 149.55 297.351 150.25V156.88C297.351 157.48 297.221 157.99 296.961 158.41C296.721 158.83 296.331 159.13 295.791 159.31C294.851 159.63 293.831 159.88 292.731 160.06C291.631 160.24 290.531 160.33 289.431 160.33ZM303.923 160C302.983 160 302.263 159.76 301.763 159.28C301.283 158.78 301.043 158.07 301.043 157.15V141.7C301.043 140.78 301.283 140.08 301.763 139.6C302.263 139.1 302.983 138.85 303.923 138.85H314.093C314.813 138.85 315.353 139.03 315.713 139.39C316.073 139.75 316.253 140.27 316.253 140.95C316.253 141.65 316.073 142.19 315.713 142.57C315.353 142.93 314.813 143.11 314.093 143.11H306.323V147.13H313.433C314.133 147.13 314.663 147.31 315.023 147.67C315.403 148.03 315.593 148.56 315.593 149.26C315.593 149.96 315.403 150.49 315.023 150.85C314.663 151.21 314.133 151.39 313.433 151.39H306.323V155.74H314.093C314.813 155.74 315.353 155.93 315.713 156.31C316.073 156.67 316.253 157.19 316.253 157.87C316.253 158.57 316.073 159.1 315.713 159.46C315.353 159.82 314.813 160 314.093 160H303.923ZM322.051 160.27C321.211 160.27 320.571 160.05 320.131 159.61C319.691 159.17 319.471 158.52 319.471 157.66V141.31C319.471 140.43 319.691 139.76 320.131 139.3C320.571 138.82 321.151 138.58 321.871 138.58C322.511 138.58 323.011 138.7 323.371 138.94C323.731 139.18 324.131 139.58 324.571 140.14L334.081 152.02H333.241V141.16C333.241 140.32 333.451 139.68 333.871 139.24C334.311 138.8 334.951 138.58 335.791 138.58C336.631 138.58 337.261 138.8 337.681 139.24C338.121 139.68 338.341 140.32 338.341 141.16V157.78C338.341 158.54 338.141 159.15 337.741 159.61C337.341 160.05 336.801 160.27 336.121 160.27C335.441 160.27 334.901 160.15 334.501 159.91C334.121 159.65 333.711 159.25 333.271 158.71L323.761 146.8H324.601V157.66C324.601 158.52 324.381 159.17 323.941 159.61C323.521 160.05 322.891 160.27 322.051 160.27ZM345.085 160C344.145 160 343.425 159.76 342.925 159.28C342.445 158.78 342.205 158.07 342.205 157.15V141.7C342.205 140.78 342.445 140.08 342.925 139.6C343.425 139.1 344.145 138.85 345.085 138.85H355.255C355.975 138.85 356.515 139.03 356.875 139.39C357.235 139.75 357.415 140.27 357.415 140.95C357.415 141.65 357.235 142.19 356.875 142.57C356.515 142.93 355.975 143.11 355.255 143.11H347.485V147.13H354.595C355.295 147.13 355.825 147.31 356.185 147.67C356.565 148.03 356.755 148.56 356.755 149.26C356.755 149.96 356.565 150.49 356.185 150.85C355.825 151.21 355.295 151.39 354.595 151.39H347.485V155.74H355.255C355.975 155.74 356.515 155.93 356.875 156.31C357.235 156.67 357.415 157.19 357.415 157.87C357.415 158.57 357.235 159.1 356.875 159.46C356.515 159.82 355.975 160 355.255 160H345.085ZM363.393 160.27C362.513 160.27 361.833 160.03 361.353 159.55C360.873 159.05 360.633 158.36 360.633 157.48V141.64C360.633 140.74 360.873 140.05 361.353 139.57C361.853 139.09 362.543 138.85 363.423 138.85H370.803C373.203 138.85 375.053 139.44 376.353 140.62C377.673 141.78 378.333 143.4 378.333 145.48C378.333 146.82 378.033 147.99 377.433 148.99C376.853 149.97 376.003 150.73 374.883 151.27C373.783 151.79 372.423 152.05 370.803 152.05L371.043 151.51H372.483C373.343 151.51 374.103 151.72 374.763 152.14C375.423 152.54 375.973 153.16 376.413 154L377.913 156.7C378.233 157.28 378.383 157.85 378.363 158.41C378.343 158.95 378.123 159.4 377.703 159.76C377.303 160.1 376.713 160.27 375.933 160.27C375.153 160.27 374.513 160.11 374.013 159.79C373.533 159.47 373.103 158.97 372.723 158.29L369.993 153.28C369.753 152.84 369.443 152.54 369.063 152.38C368.703 152.2 368.283 152.11 367.803 152.11H366.153V157.48C366.153 158.36 365.923 159.05 365.463 159.55C365.003 160.03 364.313 160.27 363.393 160.27ZM366.153 148.21H369.813C370.873 148.21 371.683 148 372.243 147.58C372.803 147.16 373.083 146.51 373.083 145.63C373.083 144.79 372.803 144.16 372.243 143.74C371.683 143.3 370.873 143.08 369.813 143.08H366.153V148.21ZM382.394 160.27C381.774 160.27 381.254 160.13 380.834 159.85C380.414 159.55 380.154 159.15 380.054 158.65C379.954 158.13 380.044 157.55 380.324 156.91L387.794 140.83C388.154 140.05 388.594 139.48 389.114 139.12C389.654 138.76 390.264 138.58 390.944 138.58C391.624 138.58 392.214 138.76 392.714 139.12C393.234 139.48 393.684 140.05 394.064 140.83L401.534 156.91C401.854 157.55 401.964 158.13 401.864 158.65C401.784 159.17 401.534 159.57 401.114 159.85C400.714 160.13 400.214 160.27 399.614 160.27C398.814 160.27 398.194 160.09 397.754 159.73C397.334 159.37 396.954 158.79 396.614 157.99L394.994 154.18L397.094 155.71H384.734L386.864 154.18L385.244 157.99C384.884 158.79 384.514 159.37 384.134 159.73C383.754 160.09 383.174 160.27 382.394 160.27ZM390.884 144.61L387.404 152.92L386.564 151.48H395.294L394.454 152.92L390.944 144.61H390.884ZM407.075 160C406.195 160 405.505 159.76 405.005 159.28C404.525 158.78 404.285 158.09 404.285 157.21V141.61C404.285 140.71 404.525 140.02 405.005 139.54C405.485 139.06 406.165 138.82 407.045 138.82C407.945 138.82 408.625 139.06 409.085 139.54C409.565 140.02 409.805 140.71 409.805 141.61V155.41H417.125C417.885 155.41 418.465 155.61 418.865 156.01C419.285 156.39 419.495 156.95 419.495 157.69C419.495 158.43 419.285 159 418.865 159.4C418.465 159.8 417.885 160 417.125 160H407.075ZM424.714 160C423.774 160 423.054 159.76 422.554 159.28C422.074 158.78 421.834 158.07 421.834 157.15V141.7C421.834 140.78 422.074 140.08 422.554 139.6C423.054 139.1 423.774 138.85 424.714 138.85H434.884C435.604 138.85 436.144 139.03 436.504 139.39C436.864 139.75 437.044 140.27 437.044 140.95C437.044 141.65 436.864 142.19 436.504 142.57C436.144 142.93 435.604 143.11 434.884 143.11H427.114V147.13H434.224C434.924 147.13 435.454 147.31 435.814 147.67C436.194 148.03 436.384 148.56 436.384 149.26C436.384 149.96 436.194 150.49 435.814 150.85C435.454 151.21 434.924 151.39 434.224 151.39H427.114V155.74H434.884C435.604 155.74 436.144 155.93 436.504 156.31C436.864 156.67 437.044 157.19 437.044 157.87C437.044 158.57 436.864 159.1 436.504 159.46C436.144 159.82 435.604 160 434.884 160H424.714Z" fill="#0051FF"/>
<path d="M172.176 255.23C169.674 255.378 167.721 254.853 166.317 253.654C164.963 252.398 164.216 250.545 164.076 248.096L161.727 206.963C161.587 204.514 162.12 202.612 163.325 201.259C164.58 199.849 166.458 199.07 168.961 198.922L188.447 197.769C192.493 197.53 195.962 197.939 198.853 198.997C201.795 199.998 204.074 201.547 205.689 203.642C207.305 205.737 208.196 208.248 208.363 211.177C208.552 214.478 207.755 217.357 205.972 219.813C204.242 222.266 201.778 224.015 198.579 225.059L198.506 223.781C202.379 224.246 205.422 225.616 207.635 227.889C209.902 230.159 211.141 233.158 211.354 236.885C211.637 241.837 210.077 245.856 206.674 248.942C203.321 251.972 198.584 253.668 192.461 254.03L172.176 255.23ZM177.949 244.07L189.849 243.366C192.564 243.206 194.505 242.583 195.672 241.499C196.889 240.359 197.438 238.75 197.319 236.673C197.201 234.597 196.474 233.09 195.138 232.154C193.856 231.215 191.857 230.826 189.142 230.986L177.242 231.69L177.949 244.07ZM176.627 220.908L187.088 220.289C189.75 220.131 191.666 219.537 192.836 218.506C194.059 217.472 194.614 215.97 194.502 214C194.389 212.03 193.668 210.63 192.339 209.801C191.06 208.915 189.089 208.55 186.427 208.708L175.965 209.327L176.627 220.908ZM223.104 252.939C221.454 253.037 220.048 252.746 218.888 252.067C217.724 251.334 216.971 250.31 216.629 248.995C216.283 247.626 216.435 246.068 217.083 244.32L234.523 200.333C235.363 198.2 236.448 196.613 237.777 195.573C239.16 194.529 240.756 193.954 242.566 193.847C244.377 193.74 245.975 194.126 247.36 195.006C248.799 195.883 250.084 197.329 251.214 199.346L273.544 240.98C274.493 242.634 274.874 244.16 274.687 245.561C274.553 246.958 273.949 248.062 272.873 248.873C271.851 249.682 270.541 250.133 268.944 250.228C266.814 250.354 265.137 249.972 263.911 249.083C262.738 248.191 261.638 246.706 260.611 244.63L255.72 234.742L261.542 238.484L228.64 240.431L234.077 236.022L230.344 246.42C229.508 248.607 228.611 250.209 227.654 251.228C226.697 252.246 225.181 252.816 223.104 252.939ZM243.324 209.91L235.323 232.582L232.868 228.881L256.108 227.506L254.091 231.472L243.483 209.901L243.324 209.91ZM288.805 249.053C286.462 249.192 284.589 248.661 283.185 247.462C281.831 246.207 281.084 244.354 280.945 241.905L278.554 200.053C278.415 197.604 278.947 195.702 280.152 194.349C281.407 192.939 283.285 192.16 285.788 192.012L312.381 190.439C314.298 190.325 315.763 190.72 316.776 191.621C317.789 192.523 318.347 193.879 318.45 195.69C318.557 197.553 318.16 199.019 317.259 200.088C316.356 201.103 314.946 201.667 313.029 201.78L293.463 202.938L294.111 214.279L311.92 213.226C313.783 213.116 315.221 213.511 316.234 214.413C317.301 215.312 317.886 216.666 317.989 218.477C318.095 220.34 317.67 221.781 316.713 222.799C315.81 223.815 314.426 224.377 312.563 224.487L294.754 225.541L295.639 241.036C295.928 246.094 293.65 248.767 288.805 249.053ZM326.127 246.846C324.477 246.943 323.071 246.652 321.911 245.973C320.747 245.24 319.994 244.216 319.652 242.901C319.307 241.532 319.458 239.974 320.106 238.226L337.546 194.24C338.386 192.106 339.471 190.519 340.8 189.479C342.183 188.436 343.779 187.86 345.59 187.753C347.4 187.646 348.998 188.033 350.383 188.912C351.822 189.789 353.107 191.236 354.237 193.252L376.567 234.886C377.516 236.54 377.897 238.067 377.71 239.467C377.576 240.864 376.972 241.968 375.896 242.78C374.874 243.588 373.564 244.04 371.967 244.134C369.838 244.26 368.16 243.878 366.934 242.989C365.761 242.097 364.661 240.613 363.634 238.536L358.743 228.648L364.566 232.391L331.663 234.337L337.1 229.928L333.367 240.327C332.531 242.513 331.634 244.116 330.677 245.134C329.72 246.152 328.204 246.723 326.127 246.846ZM346.347 203.817L338.346 226.489L335.891 222.787L359.131 221.412L357.114 225.378L346.506 203.807L346.347 203.817Z" fill="#0051FF"/>
</g>
<defs>
<filter id="filter0_d_30_41" x="61.3241" y="115.896" width="402.719" height="72.63" filterUnits="userSpaceOnUse" color-interpolation-filters="sRGB">
<feFlood flood-opacity="0" result="BackgroundImageFix"/>
<feColorMatrix in="SourceAlpha" type="matrix" values="0 0 0 0 0 0 0 0 0 0 0 0 0 0 0 0 0 0 127 0" result="hardAlpha"/>
<feOffset dy="4"/>
<feGaussianBlur stdDeviation="2"/>
<feComposite in2="hardAlpha" operator="out"/>
<feColorMatrix type="matrix" values="0 0 0 0 0 0 0 0 0 0 0 0 0 0 0 0 0 0 0.25 0"/>
<feBlend mode="normal" in2="BackgroundImageFix" result="effect1_dropShadow_30_41"/>
<feBlend mode="normal" in="SourceGraphic" in2="effect1_dropShadow_30_41" result="shape"/>
</filter>
<filter id="filter1_d_30_41" x="128.299" y="167.225" width="277.685" height="113.025" filterUnits="userSpaceOnUse" color-interpolation-filters="sRGB">
<feFlood flood-opacity="0" result="BackgroundImageFix"/>
<feColorMatrix in="SourceAlpha" type="matrix" values="0 0 0 0 0 0 0 0 0 0 0 0 0 0 0 0 0 0 127 0" result="hardAlpha"/>
<feOffset dy="4"/>
<feGaussianBlur stdDeviation="2"/>
<feComposite in2="hardAlpha" operator="out"/>
<feColorMatrix type="matrix" values="0 0 0 0 0 0 0 0 0 0 0 0 0 0 0 0 0 0 0.25 0"/>
<feBlend mode="normal" in2="BackgroundImageFix" result="effect1_dropShadow_30_41"/>
<feBlend mode="normal" in="SourceGraphic" in2="effect1_dropShadow_30_41" result="shape"/>
</filter>
<clipPath id="clip0_30_41">
<rect width="533" height="393" rx="42" fill="white"/>
</clipPath>
</defs>
</svg>
