<svg width="34" height="37" viewBox="0 0 34 37" fill="none" xmlns="http://www.w3.org/2000/svg">
<path d="M4.67568 31.5L12.2432 36.5316L18.8649 37H26.9054L31.5 34.5L34 25.2911L33.527 17.3291L31.1622 14.519L26.9054 13.5823L23.5946 11.7089L21.2297 12.1772L17.9189 11.2405L18.3919 5.1519L16.027 0H10.8243L8.45946 5.1519L8.93243 17.7975L4.5 17L1.5 17.7975L0 22.5L4.67568 31.5Z" fill="white"/>
<path d="M10.5728 3.89519C10.5728 2.41538 11.7714 1.2168 13.2512 1.2168C14.7311 1.2168 15.9296 2.41538 15.9296 3.89519V13.8186C16.4988 13.3097 17.2487 13.0017 18.0724 13.0017C19.4517 13.0017 20.6302 13.8722 21.0855 15.0909C21.6748 14.4682 22.5051 14.0731 23.4291 14.0731C25.1232 14.0731 26.5093 15.3788 26.6365 17.0394C27.2057 16.5238 27.9623 16.2158 28.7859 16.2158C30.5604 16.2158 32 17.6554 32 19.4299V26.9294C32 31.6634 28.1632 35.5002 23.4291 35.5002H17.7175C17.3827 35.5002 17.0546 35.4802 16.7332 35.4333C13.0303 35.0583 9.62202 33.1566 7.35877 30.1435L2.53767 23.7153C1.6471 22.5301 1.88816 20.8561 3.07334 19.9656C4.25853 19.075 5.93253 19.316 6.8231 20.5012L10.5728 25.5031V3.89519ZM18.0724 21.5726C18.0724 20.9833 17.5902 20.5012 17.001 20.5012C16.4117 20.5012 15.9296 20.9833 15.9296 21.5726V28.0007C15.9296 28.59 16.4117 29.0721 17.001 29.0721C17.5902 29.0721 18.0724 28.59 18.0724 28.0007V21.5726ZM21.2864 20.5012C20.6972 20.5012 20.2151 20.9833 20.2151 21.5726V28.0007C20.2151 28.59 20.6972 29.0721 21.2864 29.0721C21.8757 29.0721 22.3578 28.59 22.3578 28.0007V21.5726C22.3578 20.9833 21.8757 20.5012 21.2864 20.5012ZM26.6432 21.5726C26.6432 20.9833 26.1611 20.5012 25.5719 20.5012C24.9826 20.5012 24.5005 20.9833 24.5005 21.5726V28.0007C24.5005 28.59 24.9826 29.0721 25.5719 29.0721C26.1611 29.0721 26.6432 28.59 26.6432 28.0007V21.5726Z" fill="#0051FF"/>
</svg>
