<svg width="26" height="35" viewBox="0 0 26 35" fill="none" xmlns="http://www.w3.org/2000/svg">
<g filter="url(#filter0_d_53_6)">
<path d="M13.2693 30.4906L9.77113 24.0371L9.4394 22.5594L7.2078 25.3036L5.03651 28.6209L2.74459 29.3447L0.905022 27.3845L0.271729 19.604L0.663767 12.9393V5.85249V0.695677L2.32239 0.0322266L4.22227 0.695677L8.80611 3.74152L15.9533 8.68723L24.0655 15.0805L25.2717 18.2469L23.2512 19.604L15.0787 19.9056L15.5009 20.5087L18.5769 27.5051L19.9641 31.1842L18.5769 33.2047L15.9533 33.5968L13.2693 30.4906Z" fill="white"/>
<path d="M13.2693 30.4906L9.77113 24.0371L9.4394 22.5594L7.2078 25.3036L5.03651 28.6209L2.74459 29.3447L0.905022 27.3845L0.271729 19.604L0.663767 12.9393V5.85249V0.695677L2.32239 0.0322266L4.22227 0.695677L8.80611 3.74152L15.9533 8.68723L24.0655 15.0805L25.2717 18.2469L23.2512 19.604L15.0787 19.9056L15.5009 20.5087L18.5769 27.5051L19.9641 31.1842L18.5769 33.2047L15.9533 33.5968L13.2693 30.4906Z" stroke="black" stroke-width="0.0603136"/>
</g>
<path d="M2.88623 2.42111C3.33675 2.19307 3.88182 2.24313 4.28228 2.54904L22.0806 15.8922C22.5422 16.2371 22.7258 16.8378 22.5478 17.3828C22.3698 17.9279 21.8581 18.295 21.2797 18.295H12.8088L17.7534 28.1786C18.1928 29.0574 17.8368 30.1253 16.958 30.5647C16.0792 31.0041 15.0113 30.6481 14.5719 29.7693L9.62734 19.8857L4.54926 26.6602C4.20441 27.1218 3.60372 27.3054 3.05865 27.1274C2.51357 26.9494 2.14648 26.4377 2.14648 25.8648V3.61694C2.14648 3.1108 2.43015 2.64916 2.88623 2.42111Z" fill="#0051FF"/>
<defs>
<filter id="filter0_d_53_6" x="-4.35859e-05" y="0" width="25.5496" height="34.1114" filterUnits="userSpaceOnUse" color-interpolation-filters="sRGB">
<feFlood flood-opacity="0" result="BackgroundImageFix"/>
<feColorMatrix in="SourceAlpha" type="matrix" values="0 0 0 0 0 0 0 0 0 0 0 0 0 0 0 0 0 0 127 0" result="hardAlpha"/>
<feOffset dy="0.241255"/>
<feGaussianBlur stdDeviation="0.120627"/>
<feComposite in2="hardAlpha" operator="out"/>
<feColorMatrix type="matrix" values="0 0 0 0 0 0 0 0 0 0 0 0 0 0 0 0 0 0 0.25 0"/>
<feBlend mode="normal" in2="BackgroundImageFix" result="effect1_dropShadow_53_6"/>
<feBlend mode="normal" in="SourceGraphic" in2="effect1_dropShadow_53_6" result="shape"/>
</filter>
</defs>
</svg>
