<svg width="330" height="203" viewBox="0 0 330 203" fill="none" xmlns="http://www.w3.org/2000/svg">
<path d="M9 120.754C20.961 116.337 37.7981 109.659 55 102.045M55 102.045C84.5384 88.9698 108 78 125 62.5C152.012 37.8711 148.5 24.5 143.5 18.2538C138.262 11.7106 122.875 1.85112 97.5 21.7539C68.5 44.5 51 88.3358 55 102.045ZM55 102.045C55.5 114.614 62.7 136.623 97.5 134.623C141 132.123 183.96 92.5828 181.5 80.5M181.5 80.5C180.144 73.8382 184.072 93.131 181.5 80.5ZM181.5 80.5C180.746 76.7962 177.186 61.7461 178 58C180.881 44.7461 193.066 26.5 234.5 26.5C285.5 26.5 256.84 69.9965 252 77.2538C242.5 91.5 200 116.705 191.5 122.205C201 114.775 233.2 98.8211 258 100.254C282.8 101.687 293.5 121.764 295.5 128C299.267 139.746 303 167.5 267 187.5C239.34 202.867 217 187 211 173.254C202.836 157.42 189.103 122.1 181.5 80.5Z" stroke="#0051FF" stroke-width="18" stroke-linecap="round"/>
<circle cx="323.5" cy="186.5" r="6.5" fill="#0051FF"/>
</svg>
