<svg width="533" height="393" viewBox="0 0 533 393" fill="none" xmlns="http://www.w3.org/2000/svg">
<g clip-path="url(#clip0_33_2)">
<rect width="533" height="393" rx="42" fill="white"/>
<rect width="533" height="393" fill="#0051FF"/>
<rect x="19" y="19" width="495" height="354" rx="26" fill="#D5D7CE"/>
<g filter="url(#filter0_d_33_2)">
<rect width="155.874" height="76.058" rx="38.029" transform="matrix(0.999999 0.00124221 -0.00338601 0.999994 161.111 83.1371)" fill="#B7B5A7"/>
</g>
<g filter="url(#filter1_d_33_2)">
<rect x="247.203" y="152.272" width="103.255" height="53.4819" rx="26.741" transform="rotate(-3.26725 247.203 152.272)" fill="#C9C8BE"/>
</g>
<path d="M194.984 144.576C193.107 144.576 191.656 144.064 190.632 143.04C189.608 141.973 189.096 140.48 189.096 138.56V104.32C189.096 102.357 189.608 100.864 190.632 99.84C191.656 98.816 193.107 98.304 194.984 98.304C196.904 98.304 198.355 98.816 199.336 99.84C200.36 100.864 200.872 102.357 200.872 104.32V138.56C200.872 140.48 200.381 141.973 199.4 143.04C198.419 144.064 196.947 144.576 194.984 144.576ZM229.002 144.704C225.716 144.704 222.815 144.299 220.298 143.488C217.78 142.635 215.647 141.376 213.898 139.712C212.191 138.048 210.89 135.979 209.994 133.504C209.14 130.987 208.714 128.085 208.714 124.8V104.256C208.714 102.293 209.226 100.821 210.25 99.84C211.274 98.816 212.724 98.304 214.602 98.304C216.522 98.304 217.972 98.816 218.954 99.84C219.978 100.821 220.49 102.293 220.49 104.256V124.928C220.49 128.213 221.215 130.688 222.666 132.352C224.116 134.016 226.228 134.848 229.002 134.848C231.732 134.848 233.823 134.016 235.274 132.352C236.724 130.688 237.45 128.213 237.45 124.928V104.256C237.45 102.293 237.94 100.821 238.922 99.84C239.946 98.816 241.396 98.304 243.274 98.304C245.151 98.304 246.58 98.816 247.562 99.84C248.543 100.821 249.034 102.293 249.034 104.256V124.8C249.034 129.195 248.266 132.885 246.73 135.872C245.236 138.816 242.996 141.035 240.01 142.528C237.023 143.979 233.354 144.704 229.002 144.704ZM273.421 144.576C271.543 144.576 270.093 144.064 269.069 143.04C268.045 141.973 267.533 140.501 267.533 138.624V108.48H257.485C255.906 108.48 254.69 108.075 253.837 107.264C253.026 106.411 252.62 105.216 252.62 103.68C252.62 102.101 253.026 100.907 253.837 100.096C254.69 99.2853 255.906 98.88 257.485 98.88H289.357C290.935 98.88 292.13 99.2853 292.941 100.096C293.794 100.907 294.221 102.101 294.221 103.68C294.221 105.216 293.794 106.411 292.941 107.264C292.13 108.075 290.935 108.48 289.357 108.48H279.309V138.624C279.309 140.501 278.818 141.973 277.837 143.04C276.855 144.064 275.383 144.576 273.421 144.576Z" fill="#0051FF"/>
<g filter="url(#filter2_d_33_2)">
<rect width="352.121" height="76.058" rx="38.029" transform="matrix(0.984573 0.174974 -0.177085 0.984196 94.7433 162.667)" fill="#B7B5A7"/>
</g>
<path d="M120.243 228.757C118.394 228.431 117.033 227.671 116.161 226.477C115.338 225.249 115.089 223.71 115.415 221.862L121.198 189.088C121.531 187.197 122.291 185.836 123.478 185.006C124.664 184.175 126.182 183.923 128.03 184.249C129.921 184.583 131.261 185.339 132.049 186.518C132.88 187.704 133.128 189.243 132.795 191.134L127.679 220.126L143.058 222.839C144.655 223.121 145.799 223.756 146.491 224.745C147.233 225.699 147.466 226.953 147.192 228.508C146.918 230.062 146.265 231.182 145.235 231.867C144.246 232.559 142.953 232.764 141.357 232.482L120.243 228.757ZM152.675 235.064C151.373 234.834 150.332 234.348 149.553 233.604C148.782 232.818 148.384 231.881 148.36 230.793C148.342 229.664 148.746 228.479 149.572 227.238L171.226 196.225C172.271 194.719 173.407 193.685 174.633 193.121C175.901 192.565 177.249 192.413 178.678 192.665C180.106 192.917 181.279 193.514 182.196 194.456C183.155 195.405 183.889 196.769 184.398 198.549L194.132 235.1C194.567 236.563 194.583 237.822 194.18 238.878C193.819 239.941 193.146 240.688 192.159 241.121C191.215 241.561 190.113 241.67 188.852 241.447C187.172 241.151 185.936 240.543 185.145 239.623C184.396 238.711 183.813 237.352 183.395 235.545L181.404 226.94L185.248 230.933L159.281 226.352L164.323 223.927L159.508 231.331C158.455 232.878 157.463 233.959 156.531 234.575C155.599 235.19 154.314 235.353 152.675 235.064ZM176.316 205.311L165.925 221.48L164.694 218.143L183.035 221.379L180.736 224.093L176.442 205.334L176.316 205.311ZM204.086 244.135C202.321 243.824 201.058 243.124 200.297 242.037C199.535 240.949 199.314 239.502 199.633 237.695L205.693 203.346C206.019 201.497 206.73 200.171 207.825 199.368C208.927 198.522 210.235 198.233 211.747 198.5C213.092 198.737 214.098 199.175 214.765 199.812C215.432 200.45 216.125 201.439 216.841 202.778L232.417 231.262L230.652 230.95L234.678 208.135C234.989 206.37 235.668 205.103 236.713 204.335C237.801 203.573 239.227 203.348 240.992 203.66C242.756 203.971 243.998 204.667 244.718 205.747C245.479 206.834 245.704 208.26 245.392 210.025L239.232 244.942C238.95 246.539 238.304 247.746 237.293 248.564C236.29 249.34 235.074 249.602 233.645 249.35C232.216 249.098 231.126 248.646 230.375 247.993C229.673 247.306 228.96 246.314 228.236 245.016L212.671 216.47L214.436 216.781L210.41 239.597C210.092 241.404 209.388 242.688 208.301 243.449C207.255 244.218 205.85 244.446 204.086 244.135ZM251.848 252.562C250.083 252.25 248.82 251.551 248.059 250.464C247.298 249.376 247.076 247.929 247.395 246.122L253.455 211.773C253.782 209.924 254.492 208.598 255.587 207.795C256.689 206.949 257.997 206.66 259.51 206.927C260.854 207.164 261.86 207.602 262.527 208.239C263.195 208.877 263.887 209.866 264.604 211.205L280.18 239.689L278.415 239.377L282.44 216.562C282.752 214.797 283.43 213.53 284.476 212.762C285.563 212 286.989 211.775 288.754 212.087C290.519 212.398 291.761 213.094 292.48 214.174C293.241 215.261 293.466 216.687 293.155 218.452L286.994 253.369C286.713 254.965 286.066 256.173 285.055 256.991C284.052 257.767 282.836 258.029 281.407 257.777C279.979 257.525 278.889 257.073 278.137 256.42C277.435 255.733 276.722 254.741 275.998 253.443L260.433 224.897L262.198 225.208L258.173 248.024C257.854 249.83 257.151 251.115 256.063 251.876C255.018 252.645 253.613 252.873 251.848 252.562ZM299.988 261.055C298.14 260.729 296.8 259.973 295.969 258.787C295.146 257.558 294.902 255.999 295.235 254.108L301.184 220.389C301.525 218.456 302.289 217.074 303.475 216.244C304.662 215.413 306.179 215.161 308.028 215.487C309.919 215.821 311.259 216.577 312.047 217.756C312.878 218.942 313.122 220.502 312.781 222.435L306.832 256.154C306.498 258.045 305.756 259.43 304.604 260.31C303.46 261.148 301.921 261.396 299.988 261.055ZM335.231 267.403C330.735 266.61 326.952 264.968 323.882 262.477C320.82 259.943 318.647 256.787 317.364 253.008C316.123 249.237 315.907 245.061 316.715 240.481C317.323 237.035 318.401 233.998 319.948 231.368C321.537 228.745 323.497 226.6 325.827 224.932C328.2 223.271 330.866 222.159 333.824 221.598C336.79 220.995 339.954 220.99 343.315 221.583C347.811 222.376 351.573 224.015 354.601 226.499C357.671 228.99 359.847 232.125 361.13 235.904C362.42 239.641 362.658 243.821 361.842 248.443C361.234 251.888 360.136 254.922 358.547 257.545C356.999 260.174 355.036 262.341 352.656 264.044C350.325 265.712 347.677 266.848 344.711 267.451C341.752 268.012 338.592 267.997 335.231 267.403ZM336.943 257.697C339.17 258.09 341.154 257.899 342.894 257.123C344.634 256.346 346.098 255.045 347.287 253.218C348.476 251.392 349.315 249.092 349.804 246.319C350.538 242.159 350.184 238.761 348.743 236.123C347.302 233.486 344.922 231.875 341.603 231.289C339.418 230.904 337.434 231.095 335.652 231.864C333.92 232.598 332.459 233.879 331.27 235.705C330.089 237.49 329.25 239.79 328.753 242.605C328.019 246.765 328.369 250.184 329.803 252.863C331.244 255.5 333.624 257.112 336.943 257.697ZM370.084 273.423C368.319 273.111 367.056 272.412 366.295 271.325C365.534 270.237 365.313 268.79 365.631 266.983L371.692 232.634C372.018 230.785 372.729 229.459 373.823 228.656C374.926 227.81 376.233 227.521 377.746 227.788C379.09 228.025 380.096 228.463 380.764 229.1C381.431 229.738 382.123 230.727 382.84 232.066L398.416 260.55L396.651 260.238L400.677 237.423C400.988 235.658 401.666 234.391 402.712 233.623C403.799 232.861 405.225 232.636 406.99 232.948C408.755 233.259 409.997 233.955 410.716 235.035C411.477 236.122 411.702 237.548 411.391 239.313L405.231 274.23C404.949 275.826 404.303 277.034 403.292 277.852C402.288 278.628 401.072 278.89 399.644 278.638C398.215 278.386 397.125 277.934 396.374 277.281C395.672 276.594 394.959 275.602 394.234 274.304L378.67 245.758L380.434 246.069L376.409 268.885C376.09 270.691 375.387 271.976 374.299 272.737C373.254 273.506 371.849 273.734 370.084 273.423Z" fill="#0051FF"/>
<path d="M280.803 189.952C279.677 190.019 278.798 189.782 278.166 189.242C277.557 188.677 277.221 187.844 277.158 186.742L276.101 168.232C276.038 167.13 276.277 166.274 276.819 165.665C277.384 165.03 278.229 164.68 279.355 164.613L286.399 164.197C290.807 163.936 294.272 164.837 296.794 166.9C299.34 168.961 300.728 172.004 300.958 176.03C301.072 178.042 300.864 179.858 300.331 181.476C299.797 183.07 298.975 184.453 297.864 185.625C296.751 186.773 295.349 187.685 293.657 188.362C291.987 189.014 290.05 189.405 287.846 189.535L280.803 189.952ZM283.659 184.41L287.109 184.206C288.379 184.131 289.46 183.91 290.353 183.545C291.269 183.178 292.01 182.678 292.575 182.043C293.163 181.407 293.576 180.626 293.811 179.698C294.071 178.769 294.165 177.682 294.094 176.436C293.951 173.944 293.236 172.147 291.947 171.045C290.656 169.919 288.765 169.43 286.274 169.577L282.824 169.782L283.659 184.41ZM309.054 188.281C307.928 188.348 307.049 188.111 306.417 187.571C305.808 187.006 305.472 186.173 305.409 185.071L304.352 166.561C304.289 165.459 304.529 164.603 305.071 163.994C305.635 163.359 306.481 163.009 307.607 162.942L319.79 162.222C320.652 162.171 321.311 162.348 321.767 162.754C322.223 163.16 322.474 163.77 322.521 164.585C322.569 165.423 322.39 166.083 321.985 166.564C321.578 167.02 320.944 167.274 320.081 167.325L310.773 167.876L311.048 172.692L319.566 172.188C320.404 172.139 321.051 172.317 321.507 172.723C321.987 173.127 322.251 173.748 322.299 174.587C322.347 175.426 322.155 176.074 321.725 176.532C321.318 176.989 320.696 177.242 319.857 177.292L311.34 177.796L311.638 183.007L320.945 182.457C321.808 182.406 322.468 182.595 322.925 183.025C323.381 183.431 323.632 184.041 323.678 184.856C323.726 185.694 323.547 186.342 323.14 186.799C322.734 187.255 322.099 187.509 321.237 187.56L309.054 188.281Z" fill="#0051FF"/>
</g>
<defs>
<filter id="filter0_d_33_2" x="156.982" y="83.1843" width="163.874" height="84.1569" filterUnits="userSpaceOnUse" color-interpolation-filters="sRGB">
<feFlood flood-opacity="0" result="BackgroundImageFix"/>
<feColorMatrix in="SourceAlpha" type="matrix" values="0 0 0 0 0 0 0 0 0 0 0 0 0 0 0 0 0 0 127 0" result="hardAlpha"/>
<feOffset dy="4"/>
<feGaussianBlur stdDeviation="2"/>
<feComposite in2="hardAlpha" operator="out"/>
<feColorMatrix type="matrix" values="0 0 0 0 0 0 0 0 0 0 0 0 0 0 0 0 0 0 0.25 0"/>
<feBlend mode="normal" in2="BackgroundImageFix" result="effect1_dropShadow_33_2"/>
<feBlend mode="normal" in="SourceGraphic" in2="effect1_dropShadow_33_2" result="shape"/>
</filter>
<filter id="filter1_d_33_2" x="244.683" y="147.867" width="111.176" height="64.3202" filterUnits="userSpaceOnUse" color-interpolation-filters="sRGB">
<feFlood flood-opacity="0" result="BackgroundImageFix"/>
<feColorMatrix in="SourceAlpha" type="matrix" values="0 0 0 0 0 0 0 0 0 0 0 0 0 0 0 0 0 0 127 0" result="hardAlpha"/>
<feOffset dy="4"/>
<feGaussianBlur stdDeviation="2"/>
<feComposite in2="hardAlpha" operator="out"/>
<feColorMatrix type="matrix" values="0 0 0 0 0 0 0 0 0 0 0 0 0 0 0 0 0 0 0.25 0"/>
<feBlend mode="normal" in2="BackgroundImageFix" result="effect1_dropShadow_33_2"/>
<feBlend mode="normal" in="SourceGraphic" in2="effect1_dropShadow_33_2" result="shape"/>
</filter>
<filter id="filter2_d_33_2" x="83.4016" y="168.727" width="355.903" height="132.346" filterUnits="userSpaceOnUse" color-interpolation-filters="sRGB">
<feFlood flood-opacity="0" result="BackgroundImageFix"/>
<feColorMatrix in="SourceAlpha" type="matrix" values="0 0 0 0 0 0 0 0 0 0 0 0 0 0 0 0 0 0 127 0" result="hardAlpha"/>
<feOffset dy="4"/>
<feGaussianBlur stdDeviation="2"/>
<feComposite in2="hardAlpha" operator="out"/>
<feColorMatrix type="matrix" values="0 0 0 0 0 0 0 0 0 0 0 0 0 0 0 0 0 0 0.25 0"/>
<feBlend mode="normal" in2="BackgroundImageFix" result="effect1_dropShadow_33_2"/>
<feBlend mode="normal" in="SourceGraphic" in2="effect1_dropShadow_33_2" result="shape"/>
</filter>
<clipPath id="clip0_33_2">
<rect width="533" height="393" rx="42" fill="white"/>
</clipPath>
</defs>
</svg>
