<svg width="533" height="393" viewBox="0 0 533 393" fill="none" xmlns="http://www.w3.org/2000/svg">
<g clip-path="url(#clip0_33_11)">
<rect width="533" height="393" rx="42" fill="white"/>
<rect width="533" height="393" fill="#0051FF"/>
<rect x="19" y="19" width="495" height="354" rx="26" fill="#D5D7CE"/>
<g filter="url(#filter0_d_33_11)">
<rect width="238.383" height="76.058" rx="38.029" transform="matrix(0.999999 0.00124221 -0.00338601 0.999994 147.111 83.1371)" fill="#C9C8BE"/>
</g>
<path d="M181.048 144C179.171 144 177.699 143.488 176.632 142.464C175.608 141.397 175.096 139.925 175.096 138.048V104.768C175.096 102.848 175.608 101.376 176.632 100.352C177.656 99.328 179.107 98.816 180.984 98.816C182.904 98.816 184.355 99.328 185.336 100.352C186.36 101.376 186.872 102.848 186.872 104.768V134.208H202.488C204.109 134.208 205.347 134.635 206.2 135.488C207.096 136.299 207.544 137.493 207.544 139.072C207.544 140.651 207.096 141.867 206.2 142.72C205.347 143.573 204.109 144 202.488 144H181.048ZM221.421 144.576C219.543 144.576 218.093 144.064 217.069 143.04C216.045 141.973 215.533 140.459 215.533 138.496V120.96L217.965 127.424L203.245 106.24C202.519 105.216 202.199 104.085 202.285 102.848C202.413 101.568 202.925 100.501 203.821 99.648C204.759 98.752 206.082 98.304 207.789 98.304C208.983 98.304 210.071 98.6027 211.053 99.2C212.034 99.7547 212.951 100.715 213.805 102.08L222.765 115.264H220.461L229.421 102.016C230.317 100.651 231.234 99.6907 232.173 99.136C233.111 98.5813 234.221 98.304 235.501 98.304C237.122 98.304 238.381 98.7093 239.277 99.52C240.173 100.331 240.642 101.355 240.685 102.592C240.77 103.829 240.386 105.088 239.533 106.368L224.941 127.424L227.309 120.96V138.496C227.309 142.549 225.346 144.576 221.421 144.576ZM266.318 144.704C261.326 144.704 257.038 143.744 253.454 141.824C249.87 139.904 247.118 137.195 245.198 133.696C243.32 130.197 242.382 126.101 242.382 121.408C242.382 117.909 242.915 114.731 243.982 111.872C245.091 109.013 246.67 106.56 248.718 104.512C250.808 102.464 253.326 100.907 256.27 99.84C259.256 98.7307 262.606 98.176 266.318 98.176C268.28 98.176 270.307 98.4107 272.398 98.88C274.531 99.3067 276.408 99.968 278.03 100.864C279.224 101.504 280.056 102.315 280.526 103.296C280.995 104.277 281.144 105.28 280.974 106.304C280.846 107.328 280.483 108.245 279.886 109.056C279.288 109.867 278.52 110.421 277.582 110.72C276.643 110.976 275.619 110.827 274.51 110.272C273.23 109.675 271.95 109.227 270.67 108.928C269.432 108.587 268.131 108.416 266.766 108.416C264.12 108.416 261.902 108.928 260.11 109.952C258.36 110.933 257.038 112.384 256.142 114.304C255.246 116.224 254.798 118.592 254.798 121.408C254.798 124.224 255.246 126.613 256.142 128.576C257.038 130.496 258.36 131.968 260.11 132.992C261.902 133.973 264.12 134.464 266.766 134.464C267.875 134.464 269.07 134.336 270.35 134.08C271.63 133.781 272.888 133.333 274.126 132.736C275.406 132.181 276.536 132.032 277.518 132.288C278.542 132.544 279.352 133.056 279.95 133.824C280.59 134.592 280.995 135.488 281.166 136.512C281.336 137.493 281.187 138.475 280.718 139.456C280.291 140.437 279.523 141.227 278.414 141.824C276.92 142.72 275.064 143.424 272.846 143.936C270.67 144.448 268.494 144.704 266.318 144.704ZM293.74 144C291.735 144 290.199 143.488 289.132 142.464C288.108 141.397 287.596 139.883 287.596 137.92V104.96C287.596 102.997 288.108 101.504 289.132 100.48C290.199 99.4133 291.735 98.88 293.74 98.88H315.436C316.972 98.88 318.124 99.264 318.892 100.032C319.66 100.8 320.044 101.909 320.044 103.36C320.044 104.853 319.66 106.005 318.892 106.816C318.124 107.584 316.972 107.968 315.436 107.968H298.86V116.544H314.028C315.521 116.544 316.652 116.928 317.42 117.696C318.231 118.464 318.636 119.595 318.636 121.088C318.636 122.581 318.231 123.712 317.42 124.48C316.652 125.248 315.521 125.632 314.028 125.632H298.86V134.912H315.436C316.972 134.912 318.124 135.317 318.892 136.128C319.66 136.896 320.044 138.005 320.044 139.456C320.044 140.949 319.66 142.08 318.892 142.848C318.124 143.616 316.972 144 315.436 144H293.74ZM333.053 144C331.047 144 329.511 143.488 328.445 142.464C327.421 141.397 326.909 139.883 326.909 137.92V104.96C326.909 102.997 327.421 101.504 328.445 100.48C329.511 99.4133 331.047 98.88 333.053 98.88H354.749C356.285 98.88 357.437 99.264 358.205 100.032C358.973 100.8 359.357 101.909 359.357 103.36C359.357 104.853 358.973 106.005 358.205 106.816C357.437 107.584 356.285 107.968 354.749 107.968H338.173V116.544H353.341C354.834 116.544 355.965 116.928 356.733 117.696C357.543 118.464 357.949 119.595 357.949 121.088C357.949 122.581 357.543 123.712 356.733 124.48C355.965 125.248 354.834 125.632 353.341 125.632H338.173V134.912H354.749C356.285 134.912 357.437 135.317 358.205 136.128C358.973 136.896 359.357 138.005 359.357 139.456C359.357 140.949 358.973 142.08 358.205 142.848C357.437 143.616 356.285 144 354.749 144H333.053Z" fill="#0051FF"/>
<g filter="url(#filter1_d_33_11)">
<rect width="378.506" height="76.058" rx="38.029" transform="matrix(0.994226 0.107312 -0.109443 0.993993 87.3892 198.152)" fill="#C9C8BE"/>
</g>
<path d="M119.727 256.752C118.232 256.59 117.128 256.083 116.416 255.233C115.739 254.355 115.48 253.184 115.639 251.721L118.313 227.146C118.472 225.682 118.975 224.61 119.822 223.93C120.704 223.221 121.892 222.948 123.387 223.111L132.74 224.128C138.593 224.765 142.952 226.72 145.814 229.993C148.709 233.269 149.865 237.58 149.284 242.924C148.993 245.596 148.32 247.937 147.264 249.947C146.212 251.925 144.827 253.561 143.109 254.854C141.395 256.116 139.351 257.004 136.977 257.519C134.639 258.005 132.006 258.088 129.08 257.77L119.727 256.752ZM124.7 250.099L129.281 250.598C130.967 250.781 132.437 250.732 133.69 250.45C134.976 250.171 136.06 249.677 136.942 248.969C137.855 248.263 138.569 247.327 139.082 246.16C139.627 244.996 139.99 243.587 140.17 241.933C140.53 238.624 139.983 236.102 138.531 234.367C137.081 232.6 134.702 231.536 131.394 231.176L126.813 230.678L124.7 250.099ZM159.287 241.598C158.702 242.243 158.087 242.562 157.444 242.557C156.833 242.555 156.322 242.37 155.911 242.004C155.5 241.637 155.294 241.164 155.293 240.585C155.295 239.973 155.636 239.35 156.317 238.716C157.213 237.88 157.838 237.015 158.193 236.12C158.548 235.225 158.765 234.412 158.845 233.68L158.876 236.05C157.413 235.89 156.281 235.349 155.48 234.425C154.68 233.501 154.357 232.323 154.513 230.891C154.665 229.492 155.2 228.423 156.117 227.686C157.069 226.92 158.261 226.616 159.693 226.771C161.188 226.934 162.294 227.569 163.01 228.677C163.73 229.754 163.993 231.182 163.799 232.964C163.702 233.855 163.508 234.751 163.217 235.653C162.957 236.558 162.516 237.508 161.893 238.502C161.305 239.468 160.436 240.5 159.287 241.598ZM164.299 262.037C163.313 261.929 162.51 261.617 161.89 261.098C161.274 260.549 160.93 259.867 160.857 259.055C160.788 258.21 161.032 257.303 161.588 256.334L176.253 232.05C176.96 230.871 177.759 230.041 178.648 229.558C179.57 229.079 180.571 228.898 181.653 229.016C182.734 229.134 183.641 229.522 184.374 230.181C185.139 230.844 185.756 231.828 186.226 233.135L195.325 260.005C195.723 261.078 195.798 262.02 195.549 262.829C195.331 263.643 194.864 264.236 194.148 264.608C193.463 264.984 192.644 265.121 191.689 265.017C190.417 264.878 189.462 264.485 188.824 263.836C188.218 263.191 187.714 262.202 187.312 260.871L185.395 254.53L188.47 257.327L168.81 255.188L172.463 253.123L169.227 258.903C168.516 260.113 167.827 260.972 167.16 261.479C166.493 261.986 165.54 262.172 164.299 262.037ZM180.514 238.597L173.54 251.213L172.453 248.777L186.339 250.288L184.754 252.433L180.609 238.607L180.514 238.597ZM203.509 266.303C202.109 266.151 201.069 265.651 200.389 264.805C199.712 263.926 199.449 262.787 199.602 261.387L202.343 236.192C202.499 234.761 203 233.705 203.847 233.024C204.725 232.347 205.864 232.085 207.264 232.237L219.002 233.514C222.82 233.93 225.66 235.188 227.524 237.29C229.423 239.364 230.192 242.055 229.832 245.363C229.6 247.495 228.921 249.304 227.793 250.791C226.701 252.249 225.218 253.311 223.343 253.976C221.503 254.613 219.295 254.791 216.718 254.51L217.193 253.693L219.484 253.942C220.852 254.091 222.024 254.557 223.001 255.339C223.982 256.089 224.749 257.171 225.304 258.583L227.222 263.137C227.631 264.115 227.771 265.048 227.642 265.935C227.517 266.791 227.089 267.468 226.359 267.968C225.664 268.44 224.696 268.608 223.455 268.473C222.215 268.338 221.224 267.973 220.484 267.377C219.776 266.785 219.179 265.916 218.692 264.768L215.217 256.327C214.911 255.585 214.47 255.055 213.893 254.734C213.352 254.386 212.699 254.17 211.936 254.087L209.311 253.801L208.382 262.343C208.23 263.742 207.744 264.8 206.926 265.516C206.111 266.2 204.972 266.462 203.509 266.303ZM209.986 247.598L215.808 248.231C217.494 248.415 218.819 248.221 219.782 247.65C220.746 247.079 221.303 246.093 221.456 244.693C221.601 243.357 221.265 242.307 220.447 241.542C219.632 240.745 218.382 240.255 216.696 240.071L210.874 239.438L209.986 247.598ZM249.746 271.43C245.897 271.012 242.698 269.939 240.149 268.213C237.633 266.491 235.815 264.265 234.696 261.536C233.576 258.807 233.204 255.725 233.577 252.289C233.868 249.617 234.543 247.26 235.602 245.219C236.696 243.149 238.122 241.437 239.879 240.083C241.639 238.697 243.708 237.731 246.085 237.185C248.497 236.611 251.166 236.483 254.093 236.801C255.684 236.974 257.289 237.31 258.908 237.808C260.532 238.274 262.093 239.008 263.594 240.008C264.38 240.48 264.877 241.081 265.088 241.812C265.333 242.515 265.351 243.241 265.14 243.991C264.965 244.712 264.62 245.366 264.106 245.954C263.626 246.514 263.009 246.865 262.253 247.008C261.5 247.119 260.685 246.918 259.808 246.404C258.902 245.855 257.904 245.408 256.815 245.064C255.73 244.689 254.566 244.433 253.326 244.298C251.194 244.066 249.371 244.254 247.857 244.862C246.374 245.473 245.201 246.488 244.339 247.907C243.476 249.326 242.927 251.118 242.692 253.281C242.339 256.526 242.867 259.062 244.278 260.889C245.689 262.716 247.953 263.8 251.07 264.139C252.025 264.243 253.069 264.26 254.203 264.19C255.369 264.124 256.544 263.978 257.727 263.753L255.746 266.869L256.634 258.709L253.294 258.345C252.212 258.228 251.399 257.866 250.853 257.259C250.339 256.656 250.136 255.861 250.243 254.875C250.351 253.889 250.718 253.172 251.346 252.726C252.01 252.251 252.882 252.072 253.964 252.19L261.026 252.958C262.14 253.079 262.95 253.473 263.457 254.14C263.999 254.778 264.209 255.654 264.088 256.768L262.941 267.313C262.837 268.268 262.542 269.057 262.055 269.68C261.601 270.306 260.929 270.716 260.039 270.909C258.488 271.255 256.822 271.476 255.042 271.572C253.261 271.668 251.495 271.621 249.746 271.43ZM272.854 273.414C271.359 273.251 270.255 272.745 269.543 271.895C268.866 271.016 268.607 269.845 268.767 268.382L271.44 243.807C271.6 242.344 272.103 241.272 272.949 240.591C273.831 239.882 275.02 239.609 276.515 239.772L292.691 241.532C293.836 241.657 294.664 242.037 295.175 242.672C295.685 243.306 295.881 244.165 295.763 245.246C295.642 246.36 295.263 247.188 294.624 247.73C293.989 248.24 293.099 248.433 291.954 248.308L279.595 246.964L278.899 253.358L290.208 254.588C291.322 254.709 292.134 255.087 292.644 255.722C293.186 256.361 293.397 257.237 293.275 258.35C293.154 259.464 292.76 260.274 292.094 260.781C291.459 261.291 290.585 261.485 289.471 261.364L278.162 260.134L277.409 267.053L289.768 268.398C290.913 268.522 291.739 268.918 292.246 269.585C292.757 270.22 292.953 271.078 292.835 272.16C292.714 273.273 292.336 274.085 291.701 274.595C291.066 275.105 290.176 275.298 289.031 275.174L272.854 273.414ZM301.642 276.98C300.306 276.835 299.326 276.374 298.702 275.598C298.078 274.822 297.841 273.75 297.99 272.382L300.819 246.376C300.972 244.976 301.438 243.949 302.217 243.293C303 242.606 303.964 242.324 305.109 242.449C306.127 242.56 306.902 242.837 307.433 243.281C307.964 243.725 308.531 244.431 309.134 245.398L322.205 265.94L320.868 265.795L322.748 248.52C322.893 247.184 323.338 246.203 324.082 245.576C324.858 244.952 325.914 244.713 327.251 244.858C328.587 245.003 329.551 245.462 330.143 246.235C330.766 247.011 331.006 248.067 330.86 249.403L327.984 275.839C327.852 277.048 327.428 277.984 326.713 278.646C326 279.277 325.103 279.533 324.022 279.416C322.94 279.298 322.102 279.013 321.507 278.563C320.948 278.083 320.365 277.376 319.758 276.441L306.693 255.851L308.029 255.996L306.149 273.27C306.001 274.638 305.538 275.634 304.762 276.258C304.018 276.885 302.978 277.126 301.642 276.98ZM346.011 281.808C344.611 281.656 343.571 281.156 342.891 280.31C342.214 279.431 341.951 278.292 342.104 276.893L344.549 254.417L337.057 253.602C335.88 253.474 335.006 253.073 334.436 252.4C333.901 251.697 333.696 250.774 333.82 249.629C333.948 248.452 334.347 247.594 335.018 247.055C335.72 246.52 336.659 246.316 337.836 246.444L361.6 249.03C362.777 249.158 363.635 249.557 364.173 250.227C364.744 250.901 364.965 251.826 364.837 253.003C364.712 254.149 364.297 255.005 363.592 255.572C362.922 256.111 361.998 256.316 360.821 256.188L353.329 255.373L350.884 277.848C350.731 279.248 350.246 280.305 349.428 281.021C348.613 281.705 347.474 281.967 346.011 281.808ZM368.799 284.288C367.399 284.135 366.359 283.636 365.679 282.789C365.002 281.911 364.739 280.772 364.892 279.372L367.633 254.177C367.789 252.745 368.29 251.689 369.137 251.009C370.015 250.332 371.154 250.07 372.554 250.222L384.293 251.499C388.11 251.915 390.951 253.173 392.814 255.275C394.713 257.349 395.482 260.04 395.122 263.348C394.891 265.48 394.211 267.289 393.083 268.775C391.991 270.234 390.508 271.296 388.633 271.961C386.793 272.597 384.585 272.776 382.008 272.495L382.483 271.678L384.774 271.927C386.142 272.076 387.314 272.541 388.291 273.324C389.272 274.074 390.039 275.156 390.594 276.568L392.513 281.122C392.921 282.1 393.061 283.033 392.932 283.92C392.807 284.775 392.379 285.453 391.649 285.953C390.954 286.425 389.986 286.593 388.745 286.458C387.505 286.323 386.514 285.958 385.774 285.362C385.066 284.77 384.469 283.9 383.982 282.753L380.507 274.311C380.201 273.57 379.76 273.039 379.183 272.719C378.642 272.37 377.989 272.155 377.226 272.071L374.601 271.786L373.672 280.327C373.52 281.727 373.034 282.785 372.216 283.501C371.401 284.185 370.262 284.447 368.799 284.288ZM375.276 265.582L381.098 266.216C382.784 266.399 384.109 266.206 385.072 265.634C386.036 265.063 386.593 264.078 386.746 262.678C386.891 261.342 386.555 260.291 385.737 259.526C384.922 258.73 383.672 258.24 381.986 258.056L376.164 257.423L375.276 265.582ZM402.728 287.545C401.233 287.382 400.129 286.876 399.417 286.026C398.74 285.147 398.481 283.976 398.641 282.513L401.315 257.938C401.474 256.475 401.977 255.403 402.823 254.722C403.705 254.014 404.894 253.741 406.389 253.903L422.565 255.663C423.711 255.788 424.538 256.168 425.049 256.803C425.559 257.438 425.755 258.296 425.638 259.378C425.516 260.491 425.137 261.319 424.498 261.861C423.863 262.371 422.973 262.564 421.828 262.439L409.469 261.095L408.773 267.489L420.082 268.72C421.196 268.841 422.008 269.219 422.518 269.854C423.06 270.492 423.271 271.368 423.15 272.481C423.028 273.595 422.634 274.405 421.968 274.912C421.333 275.422 420.459 275.617 419.345 275.496L408.036 274.265L407.283 281.184L419.642 282.529C420.787 282.654 421.613 283.049 422.12 283.716C422.631 284.351 422.827 285.209 422.709 286.291C422.588 287.404 422.21 288.216 421.575 288.726C420.94 289.237 420.05 289.43 418.905 289.305L402.728 287.545Z" fill="#0051FF"/>
<g filter="url(#filter2_d_33_11)">
<rect x="130.203" y="165.272" width="251.574" height="53.4819" rx="26.741" transform="rotate(-3.26725 130.203 165.272)" fill="#B7B5A7"/>
</g>
<path d="M163.803 202.952C162.677 203.019 161.798 202.782 161.166 202.242C160.557 201.677 160.221 200.844 160.158 199.742L159.101 181.232C159.038 180.13 159.277 179.274 159.819 178.665C160.384 178.03 161.229 177.68 162.355 177.613L171.124 177.095C172.945 176.987 174.506 177.171 175.807 177.647C177.131 178.098 178.157 178.794 178.883 179.737C179.61 180.68 180.011 181.81 180.087 183.128C180.172 184.614 179.813 185.909 179.011 187.014C178.232 188.118 177.123 188.905 175.684 189.375L175.651 188.8C177.394 189.009 178.763 189.625 179.759 190.648C180.779 191.67 181.337 193.019 181.433 194.697C181.56 196.925 180.858 198.734 179.327 200.122C177.818 201.486 175.686 202.249 172.931 202.412L163.803 202.952ZM166.4 197.93L171.755 197.613C172.977 197.541 173.85 197.261 174.375 196.773C174.923 196.26 175.17 195.536 175.117 194.601C175.063 193.667 174.736 192.989 174.135 192.568C173.558 192.145 172.659 191.97 171.437 192.042L166.082 192.359L166.4 197.93ZM165.805 187.507L170.513 187.228C171.711 187.158 172.573 186.89 173.099 186.426C173.65 185.961 173.9 185.285 173.849 184.399C173.798 183.512 173.474 182.882 172.876 182.509C172.3 182.11 171.413 181.946 170.215 182.017L165.508 182.295L165.805 187.507ZM189.036 201.46C187.91 201.526 187.031 201.29 186.399 200.75C185.79 200.185 185.454 199.351 185.391 198.249L184.334 179.739C184.271 178.637 184.51 177.781 185.053 177.172C185.617 176.538 186.463 176.187 187.589 176.121L199.771 175.4C200.634 175.349 201.293 175.527 201.749 175.932C202.205 176.338 202.456 176.948 202.503 177.763C202.55 178.602 202.372 179.261 201.967 179.742C201.56 180.199 200.925 180.453 200.063 180.504L190.755 181.054L191.03 185.871L199.547 185.367C200.386 185.317 201.033 185.495 201.489 185.901C201.969 186.305 202.233 186.927 202.281 187.766C202.328 188.604 202.137 189.253 201.707 189.711C201.3 190.168 200.677 190.421 199.839 190.47L191.322 190.974L191.619 196.186L200.927 195.635C201.79 195.584 202.449 195.774 202.907 196.203C203.363 196.609 203.614 197.219 203.66 198.034C203.708 198.873 203.529 199.52 203.122 199.977C202.716 200.434 202.081 200.688 201.219 200.739L189.036 201.46ZM210.985 200.486C209.931 200.548 209.1 200.309 208.492 199.768C207.883 199.203 207.548 198.393 207.488 197.339L206.404 178.362C206.343 177.283 206.583 176.44 207.125 175.831C207.691 175.22 208.501 174.884 209.556 174.821L218.396 174.299C221.271 174.129 223.528 174.704 225.166 176.026C226.826 177.322 227.728 179.216 227.87 181.708C227.962 183.313 227.682 184.736 227.032 185.977C226.404 187.192 225.438 188.163 224.133 188.889C222.851 189.59 221.24 189.998 219.299 190.113L219.55 189.449L221.275 189.347C222.305 189.286 223.23 189.484 224.049 189.94C224.867 190.372 225.568 191.076 226.153 192.052L228.135 195.18C228.558 195.852 228.776 196.524 228.791 197.197C228.804 197.845 228.571 198.4 228.092 198.861C227.637 199.297 226.941 199.542 226.007 199.597C225.073 199.653 224.295 199.506 223.674 199.158C223.077 198.809 222.528 198.24 222.026 197.453L218.413 191.644C218.096 191.134 217.704 190.796 217.238 190.631C216.794 190.441 216.285 190.363 215.71 190.397L213.733 190.514L214.101 196.948C214.161 198.002 213.933 198.845 213.416 199.477C212.897 200.084 212.087 200.421 210.985 200.486ZM213.466 185.842L217.851 185.582C219.12 185.507 220.076 185.198 220.718 184.655C221.361 184.113 221.652 183.314 221.591 182.26C221.534 181.253 221.155 180.518 220.456 180.055C219.755 179.568 218.769 179.361 217.5 179.436L213.115 179.696L213.466 185.842ZM241.623 198.674C240.568 198.736 239.737 198.497 239.13 197.956C238.52 197.391 238.186 196.581 238.125 195.527L237.159 178.598L231.517 178.932C230.63 178.984 229.934 178.797 229.429 178.37C228.947 177.918 228.681 177.26 228.631 176.398C228.581 175.511 228.77 174.827 229.199 174.345C229.652 173.861 230.322 173.593 231.209 173.541L249.105 172.482C249.992 172.43 250.676 172.618 251.157 173.046C251.662 173.473 251.94 174.13 251.991 175.016C252.04 175.879 251.839 176.564 251.387 177.071C250.958 177.554 250.3 177.821 249.413 177.873L243.771 178.207L244.738 195.136C244.798 196.19 244.57 197.033 244.053 197.664C243.535 198.272 242.725 198.608 241.623 198.674ZM258.785 197.659C257.73 197.721 256.899 197.482 256.292 196.94C255.682 196.375 255.348 195.566 255.287 194.512L254.204 175.534C254.142 174.456 254.382 173.613 254.924 173.003C255.491 172.393 256.301 172.057 257.355 171.994L266.195 171.471C269.07 171.301 271.327 171.877 272.965 173.199C274.626 174.495 275.527 176.389 275.669 178.881C275.761 180.486 275.482 181.909 274.831 183.15C274.204 184.365 273.237 185.336 271.933 186.062C270.651 186.763 269.039 187.171 267.099 187.286L267.349 186.622L269.074 186.52C270.104 186.459 271.029 186.656 271.848 187.113C272.666 187.545 273.368 188.249 273.952 189.224L275.934 192.353C276.357 193.025 276.576 193.697 276.59 194.369C276.603 195.018 276.37 195.573 275.892 196.034C275.436 196.469 274.741 196.715 273.806 196.77C272.872 196.825 272.094 196.679 271.473 196.331C270.877 195.982 270.327 195.413 269.826 194.625L266.212 188.817C265.895 188.306 265.503 187.969 265.037 187.804C264.593 187.614 264.084 187.536 263.509 187.57L261.532 187.687L261.9 194.12C261.96 195.175 261.732 196.018 261.215 196.649C260.697 197.257 259.887 197.593 258.785 197.659ZM261.266 183.014L265.65 182.755C266.92 182.68 267.876 182.371 268.518 181.828C269.16 181.285 269.451 180.487 269.391 179.433C269.333 178.426 268.955 177.691 268.255 177.228C267.554 176.74 266.569 176.534 265.299 176.609L260.915 176.869L261.266 183.014ZM281.547 196.312C280.804 196.356 280.171 196.225 279.649 195.92C279.125 195.59 278.787 195.129 278.633 194.537C278.477 193.921 278.545 193.22 278.837 192.433L286.685 172.639C287.063 171.68 287.551 170.965 288.149 170.497C288.772 170.028 289.49 169.769 290.305 169.721C291.119 169.673 291.838 169.846 292.462 170.242C293.109 170.637 293.687 171.288 294.196 172.195L304.245 190.931C304.672 191.675 304.843 192.362 304.759 192.992C304.699 193.62 304.427 194.117 303.943 194.483C303.483 194.846 302.893 195.05 302.175 195.092C301.216 195.149 300.461 194.977 299.909 194.577C299.382 194.175 298.887 193.507 298.425 192.573L296.223 188.123L298.844 189.807L284.038 190.683L286.485 188.699L284.805 193.379C284.428 194.363 284.025 195.084 283.594 195.542C283.163 196 282.481 196.257 281.547 196.312ZM290.645 176.949L287.045 187.152L285.94 185.486L296.398 184.867L295.49 186.652L290.717 176.945L290.645 176.949ZM310.86 194.578C309.854 194.638 309.072 194.42 308.515 193.924C307.958 193.428 307.65 192.664 307.591 191.634L306.472 172.046C306.412 170.992 306.63 170.174 307.126 169.591C307.62 168.985 308.298 168.656 309.161 168.605C309.927 168.56 310.534 168.668 310.982 168.93C311.43 169.192 311.936 169.643 312.502 170.283L324.707 183.842L323.7 183.902L322.957 170.891C322.9 169.884 323.108 169.103 323.581 168.546C324.078 167.988 324.829 167.679 325.836 167.619C326.842 167.56 327.611 167.778 328.145 168.276C328.702 168.772 329.009 169.523 329.067 170.529L330.204 190.441C330.256 191.351 330.058 192.096 329.61 192.676C329.161 193.231 328.529 193.533 327.715 193.581C326.9 193.63 326.245 193.524 325.75 193.265C325.277 192.98 324.758 192.53 324.194 191.914L311.987 178.319L312.993 178.26L313.736 191.271C313.795 192.301 313.576 193.095 313.079 193.654C312.606 194.211 311.867 194.519 310.86 194.578ZM338.435 192.623C337.309 192.689 336.43 192.453 335.798 191.913C335.189 191.348 334.853 190.515 334.79 189.412L333.733 170.902C333.67 169.8 333.909 168.945 334.452 168.336C335.016 167.701 335.862 167.351 336.988 167.284L344.031 166.867C348.44 166.607 351.905 167.508 354.426 169.57C356.972 171.632 358.36 174.675 358.59 178.7C358.705 180.713 358.496 182.529 357.963 184.147C357.429 185.741 356.607 187.124 355.496 188.296C354.384 189.443 352.981 190.356 351.289 191.033C349.62 191.685 347.683 192.076 345.479 192.206L338.435 192.623ZM341.292 187.08L344.741 186.876C346.011 186.801 347.092 186.581 347.985 186.216C348.902 185.849 349.642 185.348 350.207 184.714C350.796 184.078 351.208 183.296 351.443 182.369C351.703 181.44 351.797 180.352 351.726 179.106C351.583 176.614 350.868 174.818 349.579 173.716C348.289 172.59 346.398 172.101 343.906 172.248L340.456 172.452L341.292 187.08Z" fill="#0051FF"/>
</g>
<defs>
<filter id="filter0_d_33_11" x="142.982" y="83.1843" width="246.383" height="84.2593" filterUnits="userSpaceOnUse" color-interpolation-filters="sRGB">
<feFlood flood-opacity="0" result="BackgroundImageFix"/>
<feColorMatrix in="SourceAlpha" type="matrix" values="0 0 0 0 0 0 0 0 0 0 0 0 0 0 0 0 0 0 127 0" result="hardAlpha"/>
<feOffset dy="4"/>
<feGaussianBlur stdDeviation="2"/>
<feComposite in2="hardAlpha" operator="out"/>
<feColorMatrix type="matrix" values="0 0 0 0 0 0 0 0 0 0 0 0 0 0 0 0 0 0 0.25 0"/>
<feBlend mode="normal" in2="BackgroundImageFix" result="effect1_dropShadow_33_11"/>
<feBlend mode="normal" in="SourceGraphic" in2="effect1_dropShadow_33_11" result="shape"/>
</filter>
<filter id="filter1_d_33_11" x="78.9954" y="202.011" width="384.783" height="116.503" filterUnits="userSpaceOnUse" color-interpolation-filters="sRGB">
<feFlood flood-opacity="0" result="BackgroundImageFix"/>
<feColorMatrix in="SourceAlpha" type="matrix" values="0 0 0 0 0 0 0 0 0 0 0 0 0 0 0 0 0 0 127 0" result="hardAlpha"/>
<feOffset dy="4"/>
<feGaussianBlur stdDeviation="2"/>
<feComposite in2="hardAlpha" operator="out"/>
<feColorMatrix type="matrix" values="0 0 0 0 0 0 0 0 0 0 0 0 0 0 0 0 0 0 0.25 0"/>
<feBlend mode="normal" in2="BackgroundImageFix" result="effect1_dropShadow_33_11"/>
<feBlend mode="normal" in="SourceGraphic" in2="effect1_dropShadow_33_11" result="shape"/>
</filter>
<filter id="filter2_d_33_11" x="127.683" y="152.414" width="259.253" height="72.7734" filterUnits="userSpaceOnUse" color-interpolation-filters="sRGB">
<feFlood flood-opacity="0" result="BackgroundImageFix"/>
<feColorMatrix in="SourceAlpha" type="matrix" values="0 0 0 0 0 0 0 0 0 0 0 0 0 0 0 0 0 0 127 0" result="hardAlpha"/>
<feOffset dy="4"/>
<feGaussianBlur stdDeviation="2"/>
<feComposite in2="hardAlpha" operator="out"/>
<feColorMatrix type="matrix" values="0 0 0 0 0 0 0 0 0 0 0 0 0 0 0 0 0 0 0.25 0"/>
<feBlend mode="normal" in2="BackgroundImageFix" result="effect1_dropShadow_33_11"/>
<feBlend mode="normal" in="SourceGraphic" in2="effect1_dropShadow_33_11" result="shape"/>
</filter>
<clipPath id="clip0_33_11">
<rect width="533" height="393" rx="42" fill="white"/>
</clipPath>
</defs>
</svg>
