<svg width="533" height="393" viewBox="0 0 533 393" fill="none" xmlns="http://www.w3.org/2000/svg">
<g clip-path="url(#clip0_28_5)">
<rect width="533" height="393" rx="42" fill="white"/>
<rect width="533" height="393" fill="#0051FF"/>
<rect x="19" y="19" width="495" height="354" rx="26" fill="#D5D7CE"/>
<g filter="url(#filter0_d_28_5)">
<rect x="96" y="119" width="341" height="66" rx="33" fill="#C9C8BE"/>
</g>
<path d="M124.8 166.44C121.68 166.44 119 165.84 116.76 164.64C114.52 163.44 112.8 161.747 111.6 159.56C110.427 157.373 109.84 154.813 109.84 151.88C109.84 149.693 110.173 147.707 110.84 145.92C111.533 144.133 112.52 142.6 113.8 141.32C115.107 140.04 116.68 139.067 118.52 138.4C120.387 137.707 122.48 137.36 124.8 137.36C126.027 137.36 127.293 137.507 128.6 137.8C129.933 138.067 131.107 138.48 132.12 139.04C132.867 139.44 133.387 139.947 133.68 140.56C133.973 141.173 134.067 141.8 133.96 142.44C133.88 143.08 133.653 143.653 133.28 144.16C132.907 144.667 132.427 145.013 131.84 145.2C131.253 145.36 130.613 145.267 129.92 144.92C129.12 144.547 128.32 144.267 127.52 144.08C126.747 143.867 125.933 143.76 125.08 143.76C123.427 143.76 122.04 144.08 120.92 144.72C119.827 145.333 119 146.24 118.44 147.44C117.88 148.64 117.6 150.12 117.6 151.88C117.6 153.64 117.88 155.133 118.44 156.36C119 157.56 119.827 158.48 120.92 159.12C122.04 159.733 123.427 160.04 125.08 160.04C125.773 160.04 126.52 159.96 127.32 159.8C128.12 159.613 128.907 159.333 129.68 158.96C130.48 158.613 131.187 158.52 131.8 158.68C132.44 158.84 132.947 159.16 133.32 159.64C133.72 160.12 133.973 160.68 134.08 161.32C134.187 161.933 134.093 162.547 133.8 163.16C133.533 163.773 133.053 164.267 132.36 164.64C131.427 165.2 130.267 165.64 128.88 165.96C127.52 166.28 126.16 166.44 124.8 166.44ZM141.939 166C140.686 166 139.726 165.68 139.059 165.04C138.419 164.373 138.099 163.427 138.099 162.2V141.6C138.099 140.373 138.419 139.44 139.059 138.8C139.726 138.133 140.686 137.8 141.939 137.8H155.499C156.459 137.8 157.179 138.04 157.659 138.52C158.139 139 158.379 139.693 158.379 140.6C158.379 141.533 158.139 142.253 157.659 142.76C157.179 143.24 156.459 143.48 155.499 143.48H145.139V148.84H154.619C155.552 148.84 156.259 149.08 156.739 149.56C157.246 150.04 157.499 150.747 157.499 151.68C157.499 152.613 157.246 153.32 156.739 153.8C156.259 154.28 155.552 154.52 154.619 154.52H145.139V160.32H155.499C156.459 160.32 157.179 160.573 157.659 161.08C158.139 161.56 158.379 162.253 158.379 163.16C158.379 164.093 158.139 164.8 157.659 165.28C157.179 165.76 156.459 166 155.499 166H141.939ZM166.349 166.36C165.176 166.36 164.269 166.04 163.629 165.4C162.989 164.733 162.669 163.813 162.669 162.64V141.52C162.669 140.32 162.989 139.4 163.629 138.76C164.296 138.12 165.216 137.8 166.389 137.8H176.229C179.429 137.8 181.896 138.587 183.629 140.16C185.389 141.707 186.269 143.867 186.269 146.64C186.269 148.427 185.869 149.987 185.069 151.32C184.296 152.627 183.163 153.64 181.669 154.36C180.203 155.053 178.389 155.4 176.229 155.4L176.549 154.68H178.469C179.616 154.68 180.629 154.96 181.509 155.52C182.389 156.053 183.123 156.88 183.709 158L185.709 161.6C186.136 162.373 186.336 163.133 186.309 163.88C186.283 164.6 185.989 165.2 185.429 165.68C184.896 166.133 184.109 166.36 183.069 166.36C182.029 166.36 181.176 166.147 180.509 165.72C179.869 165.293 179.296 164.627 178.789 163.72L175.149 157.04C174.829 156.453 174.416 156.053 173.909 155.84C173.429 155.6 172.869 155.48 172.229 155.48H170.029V162.64C170.029 163.813 169.723 164.733 169.109 165.4C168.496 166.04 167.576 166.36 166.349 166.36ZM170.029 150.28H174.909C176.323 150.28 177.403 150 178.149 149.44C178.896 148.88 179.269 148.013 179.269 146.84C179.269 145.72 178.896 144.88 178.149 144.32C177.403 143.733 176.323 143.44 174.909 143.44H170.029V150.28ZM200.45 166.36C199.277 166.36 198.37 166.04 197.73 165.4C197.09 164.733 196.77 163.813 196.77 162.64V143.8H190.49C189.504 143.8 188.744 143.547 188.21 143.04C187.704 142.507 187.45 141.76 187.45 140.8C187.45 139.813 187.704 139.067 188.21 138.56C188.744 138.053 189.504 137.8 190.49 137.8H210.41C211.397 137.8 212.144 138.053 212.65 138.56C213.184 139.067 213.45 139.813 213.45 140.8C213.45 141.76 213.184 142.507 212.65 143.04C212.144 143.547 211.397 143.8 210.41 143.8H204.13V162.64C204.13 163.813 203.824 164.733 203.21 165.4C202.597 166.04 201.677 166.36 200.45 166.36ZM219.553 166.36C218.379 166.36 217.473 166.04 216.833 165.4C216.193 164.733 215.873 163.8 215.873 162.6V141.2C215.873 139.973 216.193 139.04 216.833 138.4C217.473 137.76 218.379 137.44 219.553 137.44C220.753 137.44 221.659 137.76 222.273 138.4C222.913 139.04 223.233 139.973 223.233 141.2V162.6C223.233 163.8 222.926 164.733 222.313 165.4C221.699 166.04 220.779 166.36 219.553 166.36ZM232.053 166.36C230.88 166.36 229.96 166.04 229.293 165.4C228.653 164.733 228.333 163.787 228.333 162.56V141.6C228.333 140.373 228.653 139.44 229.293 138.8C229.96 138.133 230.92 137.8 232.173 137.8H245.493C246.453 137.8 247.173 138.04 247.653 138.52C248.133 139 248.373 139.693 248.373 140.6C248.373 141.533 248.133 142.253 247.653 142.76C247.173 143.24 246.453 143.48 245.493 143.48H235.693V149.16H244.613C245.547 149.16 246.253 149.4 246.733 149.88C247.24 150.36 247.493 151.053 247.493 151.96C247.493 152.893 247.24 153.6 246.733 154.08C246.253 154.56 245.547 154.8 244.613 154.8H235.693V162.56C235.693 165.093 234.48 166.36 232.053 166.36ZM255.178 166.36C254.004 166.36 253.098 166.04 252.458 165.4C251.818 164.733 251.498 163.8 251.498 162.6V141.2C251.498 139.973 251.818 139.04 252.458 138.4C253.098 137.76 254.004 137.44 255.178 137.44C256.378 137.44 257.284 137.76 257.898 138.4C258.538 139.04 258.858 139.973 258.858 141.2V162.6C258.858 163.8 258.551 164.733 257.938 165.4C257.324 166.04 256.404 166.36 255.178 166.36ZM278.198 166.44C275.078 166.44 272.398 165.84 270.158 164.64C267.918 163.44 266.198 161.747 264.998 159.56C263.825 157.373 263.238 154.813 263.238 151.88C263.238 149.693 263.572 147.707 264.238 145.92C264.932 144.133 265.918 142.6 267.198 141.32C268.505 140.04 270.078 139.067 271.918 138.4C273.785 137.707 275.878 137.36 278.198 137.36C279.425 137.36 280.692 137.507 281.998 137.8C283.332 138.067 284.505 138.48 285.518 139.04C286.265 139.44 286.785 139.947 287.078 140.56C287.372 141.173 287.465 141.8 287.358 142.44C287.278 143.08 287.052 143.653 286.678 144.16C286.305 144.667 285.825 145.013 285.238 145.2C284.652 145.36 284.012 145.267 283.318 144.92C282.518 144.547 281.718 144.267 280.918 144.08C280.145 143.867 279.332 143.76 278.478 143.76C276.825 143.76 275.438 144.08 274.318 144.72C273.225 145.333 272.398 146.24 271.838 147.44C271.278 148.64 270.998 150.12 270.998 151.88C270.998 153.64 271.278 155.133 271.838 156.36C272.398 157.56 273.225 158.48 274.318 159.12C275.438 159.733 276.825 160.04 278.478 160.04C279.172 160.04 279.918 159.96 280.718 159.8C281.518 159.613 282.305 159.333 283.078 158.96C283.878 158.613 284.585 158.52 285.198 158.68C285.838 158.84 286.345 159.16 286.718 159.64C287.118 160.12 287.372 160.68 287.478 161.32C287.585 161.933 287.492 162.547 287.198 163.16C286.932 163.773 286.452 164.267 285.758 164.64C284.825 165.2 283.665 165.64 282.278 165.96C280.918 166.28 279.558 166.44 278.198 166.44ZM292.349 166.36C291.522 166.36 290.829 166.173 290.269 165.8C289.709 165.4 289.362 164.867 289.229 164.2C289.095 163.507 289.215 162.733 289.589 161.88L299.549 140.44C300.029 139.4 300.615 138.64 301.309 138.16C302.029 137.68 302.842 137.44 303.749 137.44C304.655 137.44 305.442 137.68 306.109 138.16C306.802 138.64 307.402 139.4 307.909 140.44L317.869 161.88C318.295 162.733 318.442 163.507 318.309 164.2C318.202 164.893 317.869 165.427 317.309 165.8C316.775 166.173 316.109 166.36 315.309 166.36C314.242 166.36 313.415 166.12 312.829 165.64C312.269 165.16 311.762 164.387 311.309 163.32L309.149 158.24L311.949 160.28H295.469L298.309 158.24L296.149 163.32C295.669 164.387 295.175 165.16 294.669 165.64C294.162 166.12 293.389 166.36 292.349 166.36ZM303.669 145.48L299.029 156.56L297.909 154.64H309.549L308.429 156.56L303.749 145.48H303.669ZM328.693 166.36C327.519 166.36 326.613 166.04 325.973 165.4C325.333 164.733 325.013 163.813 325.013 162.64V143.8H318.733C317.746 143.8 316.986 143.547 316.453 143.04C315.946 142.507 315.692 141.76 315.692 140.8C315.692 139.813 315.946 139.067 316.453 138.56C316.986 138.053 317.746 137.8 318.733 137.8H338.653C339.639 137.8 340.386 138.053 340.893 138.56C341.426 139.067 341.693 139.813 341.693 140.8C341.693 141.76 341.426 142.507 340.893 143.04C340.386 143.547 339.639 143.8 338.653 143.8H332.373V162.64C332.373 163.813 332.066 164.733 331.453 165.4C330.839 166.04 329.919 166.36 328.693 166.36ZM347.795 166.36C346.621 166.36 345.715 166.04 345.075 165.4C344.435 164.733 344.115 163.8 344.115 162.6V141.2C344.115 139.973 344.435 139.04 345.075 138.4C345.715 137.76 346.621 137.44 347.795 137.44C348.995 137.44 349.901 137.76 350.515 138.4C351.155 139.04 351.475 139.973 351.475 141.2V162.6C351.475 163.8 351.168 164.733 350.555 165.4C349.941 166.04 349.021 166.36 347.795 166.36ZM370.176 166.44C367.322 166.44 364.816 165.84 362.656 164.64C360.496 163.413 358.816 161.707 357.616 159.52C356.442 157.333 355.856 154.787 355.856 151.88C355.856 149.693 356.189 147.707 356.856 145.92C357.549 144.133 358.522 142.6 359.776 141.32C361.056 140.04 362.576 139.067 364.336 138.4C366.096 137.707 368.042 137.36 370.176 137.36C373.029 137.36 375.522 137.96 377.656 139.16C379.816 140.36 381.496 142.053 382.696 144.24C383.896 146.4 384.496 148.947 384.496 151.88C384.496 154.067 384.149 156.053 383.456 157.84C382.789 159.627 381.816 161.173 380.536 162.48C379.282 163.76 377.776 164.747 376.016 165.44C374.256 166.107 372.309 166.44 370.176 166.44ZM370.176 160.28C371.589 160.28 372.789 159.947 373.776 159.28C374.762 158.613 375.522 157.653 376.056 156.4C376.589 155.147 376.856 153.64 376.856 151.88C376.856 149.24 376.269 147.187 375.096 145.72C373.922 144.253 372.282 143.52 370.176 143.52C368.789 143.52 367.589 143.853 366.576 144.52C365.589 145.16 364.829 146.107 364.296 147.36C363.762 148.587 363.496 150.093 363.496 151.88C363.496 154.52 364.082 156.587 365.256 158.08C366.429 159.547 368.069 160.28 370.176 160.28ZM392.281 166.36C391.161 166.36 390.308 166.067 389.721 165.48C389.135 164.893 388.841 164.027 388.841 162.88V141.08C388.841 139.907 389.135 139.013 389.721 138.4C390.308 137.76 391.081 137.44 392.041 137.44C392.895 137.44 393.561 137.6 394.041 137.92C394.521 138.24 395.055 138.773 395.641 139.52L408.321 155.36H407.201V140.88C407.201 139.76 407.481 138.907 408.041 138.32C408.628 137.733 409.481 137.44 410.601 137.44C411.721 137.44 412.561 137.733 413.121 138.32C413.708 138.907 414.001 139.76 414.001 140.88V163.04C414.001 164.053 413.735 164.867 413.201 165.48C412.668 166.067 411.948 166.36 411.041 166.36C410.135 166.36 409.415 166.2 408.881 165.88C408.375 165.533 407.828 165 407.241 164.28L394.561 148.4H395.681V162.88C395.681 164.027 395.388 164.893 394.801 165.48C394.241 166.067 393.401 166.36 392.281 166.36Z" fill="#0051FF"/>
<g filter="url(#filter1_d_28_5)">
<rect width="246.076" height="90.5437" rx="45.2718" transform="matrix(0.99853 0.0541951 -0.0563356 0.998412 148.101 170)" fill="#B7B5A7"/>
</g>
<path d="M197.223 256.493C194.411 256.349 192.279 255.47 190.827 253.858C189.378 252.181 188.729 249.937 188.879 247.125L191.584 196.509C191.737 193.633 192.622 191.468 194.238 190.013C195.918 188.561 198.164 187.907 200.976 188.052L224.561 189.264C232.231 189.658 238.037 191.943 241.98 196.119C245.99 200.235 247.811 205.743 247.442 212.645C247.073 219.548 244.674 224.871 240.244 228.617C235.881 232.302 229.865 233.947 222.195 233.553L207.334 232.789L206.52 248.031C206.37 250.843 205.517 253.01 203.961 254.533C202.409 255.991 200.163 256.644 197.223 256.493ZM208.057 219.272L219.849 219.879C223.173 220.049 225.767 219.478 227.632 218.164C229.5 216.786 230.511 214.659 230.664 211.783C230.821 208.843 230.043 206.624 228.328 205.126C226.614 203.628 224.095 202.794 220.771 202.623L208.979 202.017L208.057 219.272ZM262.013 259.823C259.2 259.679 257.068 258.8 255.616 257.188C254.167 255.511 253.52 253.235 253.674 250.359L256.414 199.072C256.571 196.132 257.458 193.935 259.074 192.48C260.69 191.025 262.904 190.37 265.716 190.514C268.592 190.662 270.724 191.541 272.113 193.15C273.565 194.763 274.212 197.039 274.055 199.979L271.314 251.266C271.161 254.142 270.306 256.341 268.751 257.863C267.199 259.321 264.953 259.975 262.013 259.823ZM289.291 261.226C287.054 261.111 285.233 260.408 283.827 259.118C282.422 257.829 281.641 256.25 281.485 254.384C281.392 252.521 282.132 250.668 283.704 248.826L305.464 223.029L305.039 230.986L286.687 203.8C285.323 201.744 284.786 199.793 285.077 197.95C285.432 196.11 286.377 194.62 287.912 193.482C289.447 192.343 291.333 191.831 293.57 191.946C295.423 192.041 297.029 192.572 298.387 193.539C299.746 194.506 301.075 196.017 302.375 198.07L315.6 218.648L309.848 218.352L325.289 199.248C326.805 197.275 328.287 195.909 329.738 195.151C331.192 194.328 332.846 193.965 334.699 194.06C337 194.178 338.853 194.882 340.258 196.172C341.667 197.398 342.418 198.943 342.51 200.806C342.667 202.672 341.924 204.589 340.281 206.555L319.036 231.706L319.461 223.749L338.352 251.635C339.784 253.631 340.322 255.55 339.968 257.39C339.677 259.233 338.764 260.724 337.229 261.863C335.694 263.002 333.776 263.512 331.475 263.394C329.685 263.302 328.11 262.804 326.748 261.901C325.39 260.934 324.03 259.39 322.669 257.27L308.996 236.092L314.557 236.378L298.797 256.043C297.217 258.012 295.701 259.408 294.247 260.231C292.796 260.989 291.144 261.321 289.291 261.226Z" fill="#0051FF"/>
</g>
<defs>
<filter id="filter0_d_28_5" x="92" y="119" width="349" height="74" filterUnits="userSpaceOnUse" color-interpolation-filters="sRGB">
<feFlood flood-opacity="0" result="BackgroundImageFix"/>
<feColorMatrix in="SourceAlpha" type="matrix" values="0 0 0 0 0 0 0 0 0 0 0 0 0 0 0 0 0 0 127 0" result="hardAlpha"/>
<feOffset dy="4"/>
<feGaussianBlur stdDeviation="2"/>
<feComposite in2="hardAlpha" operator="out"/>
<feColorMatrix type="matrix" values="0 0 0 0 0 0 0 0 0 0 0 0 0 0 0 0 0 0 0.25 0"/>
<feBlend mode="normal" in2="BackgroundImageFix" result="effect1_dropShadow_28_5"/>
<feBlend mode="normal" in="SourceGraphic" in2="effect1_dropShadow_28_5" result="shape"/>
</filter>
<filter id="filter1_d_28_5" x="141.477" y="172.386" width="253.861" height="106.964" filterUnits="userSpaceOnUse" color-interpolation-filters="sRGB">
<feFlood flood-opacity="0" result="BackgroundImageFix"/>
<feColorMatrix in="SourceAlpha" type="matrix" values="0 0 0 0 0 0 0 0 0 0 0 0 0 0 0 0 0 0 127 0" result="hardAlpha"/>
<feOffset dy="4"/>
<feGaussianBlur stdDeviation="2"/>
<feComposite in2="hardAlpha" operator="out"/>
<feColorMatrix type="matrix" values="0 0 0 0 0 0 0 0 0 0 0 0 0 0 0 0 0 0 0.25 0"/>
<feBlend mode="normal" in2="BackgroundImageFix" result="effect1_dropShadow_28_5"/>
<feBlend mode="normal" in="SourceGraphic" in2="effect1_dropShadow_28_5" result="shape"/>
</filter>
<clipPath id="clip0_28_5">
<rect width="533" height="393" rx="42" fill="white"/>
</clipPath>
</defs>
</svg>
