<svg width="1794" height="535" viewBox="0 0 1794 535" fill="none" xmlns="http://www.w3.org/2000/svg">
<g filter="url(#filter0_d_45_16)">
<path d="M1554.22 105.475L1705.98 88.0029L1706.17 87.9814L1706.33 88.0938L1788.83 147.094L1789.16 147.33L1760.99 211.202L1760.84 211.54L1760.48 211.496L1668.56 200.505L1644.8 205.256L1659.27 215.058L1756.23 256.039L1756.46 256.137L1756.52 256.38L1777.02 338.88L1777.07 339.072L1776.97 339.245L1725.47 430.745L1725.35 430.966L1725.1 430.996L1606.1 445.496L1606.05 445.502L1606.01 445.499L1529.51 440.999L1529.26 440.984L1529.12 440.784L1484.07 375.437L1455.97 424.249L1455.86 424.448L1455.63 424.491L1364.13 441.991L1364.03 442.011L1363.92 441.986L1323.42 432.486L1323.15 432.424L1323.06 432.161L1300.34 365.474L1232.41 441.832L1232.24 442.027L1231.98 441.997L1074.06 423.506L994.644 440.988L994.571 441.004L994.496 440.998L855.996 429.998L855.827 429.985L855.701 429.871L830.437 407.083L723.229 451.961L723.04 452.041L722.849 451.964L611.527 407.036L520.21 440.969L520.088 441.015L519.959 440.994L449.959 429.994L449.726 429.957L449.605 429.754L430.484 397.396L405.935 429.802L405.804 429.976L405.587 429.997L297.587 440.997L297.212 441.035L297.072 440.686L263.145 355.866L218.922 334.5H168.536V415.386L168.163 415.483L70.6631 440.983L70.5596 441.011L4.4541 429.993L4 429.918L4.03809 429.459L17.0342 272.499L4.03809 113.541L4.0127 113.232L4.27734 113.072L57.2773 81.0723L57.3965 81H193.628L193.713 81.0322L277.999 112.951L337.299 81.0596L337.41 81H501.206L501.342 81.1035L572.999 136.34L630.188 81.1406L630.334 81H798.18L798.301 81.0762L870.02 125.9L933.749 81.0908L933.878 81H1016.57L1016.61 81.0049L1108.05 93.9961L1245.49 81.002L1245.53 80.999L1245.56 81.001L1383.54 87.999L1529.51 81.001L1529.73 80.9902L1554.22 105.475Z" fill="white"/>
<path d="M48.1422 397V120.441H181.126C202.048 120.441 219.831 124.102 234.476 131.425C249.122 138.486 260.236 148.816 267.82 162.415C275.666 175.753 279.589 191.967 279.589 211.058C279.589 229.626 275.666 245.841 267.82 259.701C260.236 273.3 249.122 283.761 234.476 291.084C219.831 298.145 202.048 301.675 181.126 301.675H120.322V397H48.1422ZM120.322 246.364H168.573C182.172 246.364 192.633 243.487 199.955 237.733C207.278 231.718 210.939 222.827 210.939 211.058C210.939 199.028 207.278 190.136 199.955 184.383C192.633 178.629 182.172 175.753 168.573 175.753H120.322V246.364ZM313.239 397V120.441H446.223C477.606 120.441 501.796 128.156 518.795 143.586C536.056 158.754 544.686 179.937 544.686 207.135C544.686 224.657 540.763 239.956 532.917 253.032C525.333 265.847 514.219 275.785 499.573 282.846C485.19 289.645 467.406 293.045 446.223 293.045L449.361 285.984H468.191C479.436 285.984 489.374 288.73 498.004 294.222C506.634 299.452 513.826 307.56 519.58 318.544L562.731 397H483.49L435.631 309.129C433.539 305.206 431.055 302.198 428.178 300.106C425.301 298.014 422.032 296.445 418.371 295.399C414.971 294.353 411.179 293.83 406.995 293.83H385.419V397H313.239ZM385.419 242.833H433.278C447.138 242.833 457.73 240.087 465.053 234.595C472.375 229.103 476.036 220.604 476.036 209.097C476.036 198.113 472.375 189.875 465.053 184.383C457.73 178.629 447.138 175.753 433.278 175.753H385.419V242.833ZM721.673 401.315C700.751 401.315 681.66 397.915 664.399 391.116C647.139 384.316 632.232 374.64 619.679 362.087C607.388 349.272 597.842 334.104 591.043 316.582C584.505 299.06 581.236 279.708 581.236 258.524C581.236 237.08 584.505 217.596 591.043 200.074C597.842 182.552 607.388 167.515 619.679 154.962C632.232 142.409 647.139 132.863 664.399 126.325C681.66 119.526 700.751 116.126 721.673 116.126C742.594 116.126 761.685 119.526 778.946 126.325C796.206 132.863 810.982 142.409 823.274 154.962C835.827 167.515 845.372 182.552 851.91 200.074C858.71 217.335 862.11 236.687 862.11 258.132C862.11 279.838 858.71 299.452 851.91 316.974C845.372 334.496 835.827 349.665 823.274 362.479C810.982 375.032 796.206 384.708 778.946 391.508C761.685 398.046 742.594 401.315 721.673 401.315ZM721.673 340.904C735.533 340.904 747.302 337.635 756.978 331.097C766.654 324.559 774.108 315.144 779.338 302.852C784.569 290.561 787.184 275.785 787.184 258.524C787.184 241.264 784.569 226.488 779.338 214.196C774.369 201.905 766.916 192.621 756.978 186.344C747.302 179.806 735.533 176.537 721.673 176.537C708.074 176.537 696.305 179.806 686.367 186.344C676.691 192.621 669.238 201.905 664.007 214.196C658.777 226.488 656.161 241.264 656.161 258.524C656.161 275.785 658.646 290.561 663.615 302.852C668.845 315.144 676.429 324.559 686.367 331.097C696.305 337.635 708.074 340.904 721.673 340.904ZM866.998 401.315L862.683 343.65L894.85 341.688C901.388 341.427 906.618 340.381 910.541 338.55C914.464 336.458 917.341 333.45 919.171 329.527C921.264 325.605 922.31 320.636 922.31 314.621V120.441H994.49V313.444C994.49 331.489 991.221 346.788 984.683 359.341C978.145 371.632 968.468 381.047 955.654 387.585C942.839 394.123 926.625 398.046 907.011 399.354L866.998 401.315ZM1044.55 397V120.441H1239.91V176.145H1113.6V228.711H1230.89V284.415H1113.6V341.296H1239.91V397H1044.55ZM1352.55 397V179.283H1264.68V120.441H1512.6V179.283H1424.73V397H1352.55ZM1634.24 401.315C1619.85 401.315 1605.73 400.138 1591.87 397.785C1578.01 395.431 1565.2 392.031 1553.43 387.585C1541.66 383.139 1531.46 377.909 1522.83 371.894L1542.84 315.798C1550.94 321.028 1559.97 325.605 1569.9 329.527C1579.84 333.45 1590.3 336.589 1601.29 338.942C1612.27 341.034 1623.25 342.08 1634.24 342.08C1651.5 342.08 1663.53 339.858 1670.33 335.412C1677.39 330.704 1680.92 324.951 1680.92 318.151C1680.92 313.967 1679.87 310.436 1677.78 307.56C1675.69 304.683 1672.16 302.198 1667.19 300.106C1662.48 297.753 1656.07 295.791 1647.97 294.222L1602.07 284.415C1576.96 279.185 1558.27 270.031 1545.97 256.955C1533.68 243.879 1527.54 227.011 1527.54 206.351C1527.54 188.044 1532.38 172.222 1542.05 158.885C1551.99 145.285 1565.72 134.825 1583.24 127.502C1601.02 119.918 1621.42 116.126 1644.44 116.126C1657.25 116.126 1669.54 117.303 1681.31 119.656C1693.34 122.01 1704.46 125.541 1714.66 130.248C1724.86 134.694 1733.49 139.924 1740.55 145.939L1720.54 198.505C1710.6 191.183 1698.96 185.56 1685.63 181.637C1672.55 177.453 1658.56 175.36 1643.65 175.36C1633.98 175.36 1625.74 176.537 1618.94 178.891C1612.14 180.983 1606.91 184.121 1603.25 188.306C1599.85 192.49 1598.15 197.328 1598.15 202.82C1598.15 208.312 1600.37 213.02 1604.82 216.942C1609.52 220.604 1618.02 223.742 1630.31 226.357L1675.82 236.164C1701.19 241.656 1720.15 250.679 1732.7 263.232C1745.25 275.785 1751.53 292.13 1751.53 312.267C1751.53 330.05 1746.69 345.742 1737.02 359.341C1727.34 372.678 1713.74 383.009 1696.22 390.331C1678.7 397.654 1658.04 401.315 1634.24 401.315Z" fill="#0051FF"/>
</g>
<defs>
<filter id="filter0_d_45_16" x="0" y="80.9902" width="1793.16" height="379.051" filterUnits="userSpaceOnUse" color-interpolation-filters="sRGB">
<feFlood flood-opacity="0" result="BackgroundImageFix"/>
<feColorMatrix in="SourceAlpha" type="matrix" values="0 0 0 0 0 0 0 0 0 0 0 0 0 0 0 0 0 0 127 0" result="hardAlpha"/>
<feOffset dy="4"/>
<feGaussianBlur stdDeviation="2"/>
<feComposite in2="hardAlpha" operator="out"/>
<feColorMatrix type="matrix" values="0 0 0 0 0 0 0 0 0 0 0 0 0 0 0 0 0 0 0.25 0"/>
<feBlend mode="normal" in2="BackgroundImageFix" result="effect1_dropShadow_45_16"/>
<feBlend mode="normal" in="SourceGraphic" in2="effect1_dropShadow_45_16" result="shape"/>
</filter>
</defs>
</svg>
