<svg width="533" height="393" viewBox="0 0 533 393" fill="none" xmlns="http://www.w3.org/2000/svg">
<g clip-path="url(#clip0_28_30)">
<rect width="533" height="393" rx="42" fill="white"/>
<rect width="533" height="393" fill="#0051FF"/>
<path d="M19 45C19 30.6406 30.6406 19 45 19H488C502.359 19 514 30.6406 514 45V347C514 361.359 502.359 373 488 373H45C30.6406 373 19 361.359 19 347V45Z" fill="#D5D7CE"/>
<g filter="url(#filter0_d_28_30)">
<rect width="396.507" height="135.348" rx="56" transform="matrix(0.98963 -0.143643 0.141521 0.989935 62.8808 154.289)" fill="#B7B5A7"/>
</g>
<path d="M130.726 257.364C127.003 257.856 123.995 257.221 121.7 255.459C119.394 253.612 117.999 250.827 117.515 247.103L108.79 180.085C108.295 176.277 108.93 173.223 110.696 170.924C112.546 168.614 115.333 167.212 119.055 166.72L150.271 162.592C160.423 161.249 168.59 162.838 174.771 167.357C181.027 171.78 184.749 178.562 185.939 187.7C187.128 196.839 185.273 204.401 180.373 210.386C175.546 216.275 168.057 219.891 157.905 221.233L138.236 223.834L140.863 244.016C141.348 247.739 140.755 250.787 139.085 253.16C137.403 255.448 134.617 256.849 130.726 257.364ZM135.906 205.937L151.515 203.873C155.914 203.291 159.176 201.913 161.303 199.738C163.418 197.479 164.228 194.445 163.732 190.637C163.225 186.745 161.667 184.024 159.055 182.476C156.444 180.927 152.939 180.444 148.54 181.026L132.932 183.09L135.906 205.937ZM238.084 243.425C234.7 243.873 231.114 244.089 227.326 244.073C223.633 244.131 220.077 243.913 216.656 243.418C213.236 242.924 210.132 242.215 207.344 241.293C204.917 240.495 203.122 239.269 201.96 237.615C200.787 235.876 200.195 233.975 200.185 231.91C200.174 229.846 200.662 227.974 201.648 226.294C202.623 224.53 204.051 223.265 205.93 222.5C207.799 221.65 210.031 221.613 212.628 222.389C216.041 223.487 219.833 224.19 224.003 224.5C228.174 224.809 232.036 224.729 235.589 224.259C241.173 223.52 244.97 222.286 246.983 220.557C249.069 218.732 249.968 216.719 249.682 214.519C249.429 212.573 248.421 211.114 246.66 210.142C244.983 209.158 242.101 208.506 238.015 208.186L222.755 206.976C214.413 206.358 207.979 204.196 203.452 200.491C198.926 196.786 196.227 191.591 195.357 184.906C194.784 180.505 195.155 176.411 196.468 172.622C197.856 168.737 200.034 165.307 203.003 162.332C206.056 159.346 209.779 156.874 214.171 154.916C218.637 152.862 223.703 151.461 229.371 150.711C233.77 150.13 238.278 150.05 242.894 150.472C247.583 150.799 251.704 151.717 255.257 153.227C257.335 153.986 258.912 155.197 259.989 156.862C261.067 158.527 261.647 160.344 261.732 162.313C261.805 164.197 261.343 165.937 260.346 167.532C259.433 169.116 258.037 170.29 256.157 171.055C254.351 171.724 252.066 171.682 249.3 170.929C246.703 170.153 243.807 169.719 240.611 169.625C237.488 169.435 234.489 169.531 231.612 169.911C228.482 170.325 225.867 171.058 223.767 172.111C221.655 173.078 220.096 174.318 219.088 175.828C218.164 177.328 217.818 178.966 218.049 180.743C218.281 182.52 219.198 183.948 220.801 185.027C222.478 186.01 225.36 186.662 229.446 186.982L244.579 188.209C253.016 188.901 259.529 191.009 264.119 194.534C268.708 198.059 271.427 203.079 272.275 209.595C272.848 213.995 272.477 218.089 271.164 221.878C269.85 225.667 267.708 229.049 264.74 232.024C261.76 234.914 258.031 237.344 253.555 239.313C249.078 241.283 243.921 242.653 238.084 243.425ZM332.668 230.917C322.77 232.226 314.02 231.446 306.418 228.578C298.817 225.71 292.661 221.058 287.95 214.623C283.325 208.176 280.406 200.299 279.195 190.991C278.291 184.052 278.528 177.608 279.905 171.659C281.367 165.699 283.863 160.419 287.395 155.82C291.012 151.211 295.601 147.462 301.163 144.574C306.798 141.591 313.296 139.613 320.656 138.64C324.547 138.125 328.626 138.059 332.892 138.442C337.232 138.729 341.125 139.548 344.571 140.9C347.105 141.856 348.964 143.246 350.148 145.069C351.332 146.892 351.887 148.841 351.813 150.917C351.824 152.981 351.341 154.896 350.366 156.66C349.391 158.425 348.012 159.726 346.228 160.564C344.433 161.318 342.364 161.291 340.021 160.481C337.329 159.632 334.675 159.079 332.06 158.823C329.519 158.47 326.895 158.473 324.188 158.831C318.943 159.525 314.676 161.122 311.387 163.622C308.172 166.027 305.924 169.251 304.643 173.294C303.362 177.337 303.085 182.151 303.812 187.736C304.539 193.32 306.044 197.942 308.328 201.599C310.6 205.172 313.602 207.745 317.335 209.317C321.142 210.793 325.667 211.185 330.912 210.491C333.112 210.2 335.448 209.633 337.919 208.79C340.38 207.862 342.76 206.643 345.059 205.134C347.454 203.699 349.657 203.106 351.669 203.356C353.765 203.596 355.505 204.398 356.888 205.765C358.355 207.12 359.39 208.791 359.993 210.777C360.584 212.679 360.542 214.664 359.864 216.733C359.272 218.791 357.953 220.558 355.907 222.034C353.178 224.202 349.68 226.085 345.413 227.682C341.231 229.268 336.982 230.347 332.668 230.917ZM386.477 222.381C383.347 222.795 380.831 222.31 378.93 220.926C377.102 219.446 375.99 217.183 375.594 214.137C375.197 211.09 375.698 208.657 377.096 206.837C378.579 205.005 380.885 203.883 384.015 203.469L395.436 201.958L388.678 150.044L399.337 148.635L382.408 162.365C380.384 164.01 378.383 164.834 376.405 164.837C374.415 164.756 372.655 164.128 371.125 162.953C369.595 161.778 368.492 160.245 367.816 158.355C367.14 156.465 367.056 154.496 367.564 152.449C368.072 150.402 369.38 148.551 371.487 146.895L387.578 133.663C389.285 132.232 391.073 131.092 392.941 130.243C394.894 129.382 396.971 128.806 399.17 128.515C402.385 128.09 404.991 128.606 406.988 130.064C408.973 131.436 410.17 133.688 410.578 136.819L418.658 198.888L428.809 197.545C431.939 197.131 434.413 197.622 436.229 199.017C438.13 200.401 439.279 202.616 439.676 205.662C440.072 208.709 439.535 211.19 438.063 213.106C436.665 214.926 434.401 216.044 431.271 216.458L386.477 222.381Z" fill="#0051FF"/>
</g>
<defs>
<filter id="filter0_d_28_30" x="66.2351" y="104.79" width="404.841" height="184.029" filterUnits="userSpaceOnUse" color-interpolation-filters="sRGB">
<feFlood flood-opacity="0" result="BackgroundImageFix"/>
<feColorMatrix in="SourceAlpha" type="matrix" values="0 0 0 0 0 0 0 0 0 0 0 0 0 0 0 0 0 0 127 0" result="hardAlpha"/>
<feOffset dy="4"/>
<feGaussianBlur stdDeviation="2"/>
<feComposite in2="hardAlpha" operator="out"/>
<feColorMatrix type="matrix" values="0 0 0 0 0 0 0 0 0 0 0 0 0 0 0 0 0 0 0.25 0"/>
<feBlend mode="normal" in2="BackgroundImageFix" result="effect1_dropShadow_28_30"/>
<feBlend mode="normal" in="SourceGraphic" in2="effect1_dropShadow_28_30" result="shape"/>
</filter>
<clipPath id="clip0_28_30">
<rect width="533" height="393" rx="42" fill="white"/>
</clipPath>
</defs>
</svg>
