<svg width="353" height="226" viewBox="0 0 353 226" fill="none" xmlns="http://www.w3.org/2000/svg">
<g filter="url(#filter0_d_45_11)">
<path d="M327.096 183.016L325.096 194.516L332.096 202.516H342.096L348.096 192.516L340.096 183.016H327.096Z" fill="white"/>
</g>
<g filter="url(#filter1_d_45_11)">
<path d="M145.828 0.0732422L165.828 10.5732L166 10.6631L166.066 10.8467L175.066 35.8467L175.138 36.0459L175.044 36.2363L158.544 69.7363L158.499 69.8281L158.422 69.8945L122.922 100.395L122.857 100.45L122.779 100.48L90.3008 113.274L93.8955 120.016H117.486L157.786 101.606L174.096 82.332V55.3643L187.242 35.6445L187.339 35.5869L214.839 19.0869L214.942 19.0244L215.062 19.0166L253.062 16.5166L253.149 16.5107L253.232 16.5342L283.232 25.0342L283.479 25.1045L283.565 25.3457L292.065 48.8457L292.109 48.9658L292.09 49.0928L288.09 74.5928L288.071 74.71L288.003 74.8066L275.971 91.6514L293.676 94.5225L293.831 94.5469L293.944 94.6572L312.444 112.657L312.496 112.707L312.531 112.77L325.531 135.77L325.605 135.9L323.095 171.051L323.084 171.196L322.998 171.312L307.498 192.312L307.474 192.346L291.883 207.434L291.806 207.47L271.306 216.97L271.173 217.031L271.027 217.011L235.027 212.011L234.883 211.991L234.772 211.897L211.772 192.397L211.691 192.328L211.646 192.233L197.646 163.233L197.633 163.207L197.623 163.18L184.83 126.276L168.864 136.438L168.855 136.442L145.855 150.442L145.779 150.489L145.692 150.506L112.692 157.006L112.614 157.021L112.535 157.012L79.5352 153.012L79.3711 152.992L79.251 152.878L58.3955 133.016H49.6748L24.748 140.992L24.6006 141.039L24.4521 140.994L9.45215 136.494L9.2168 136.424L4.12891 123.195L4 122.86L4.27539 122.632L16.2754 112.632L16.3379 112.58L16.4121 112.551L49.1768 99.6426L53.1123 84.8867L53.1152 84.8779L53.1182 84.8682L61.1182 58.8682L61.1426 58.7871L61.1943 58.7178L81.1943 31.7178L81.2178 31.6865L81.2451 31.6592L108.745 4.65918L108.866 4.54004L109.034 4.51953L145.534 0.0195312L145.689 0L145.828 0.0732422ZM254.999 121.516L254.91 121.552L219.91 135.552L219.408 135.752L219.647 136.236L237.647 172.736L237.714 172.871L237.843 172.947L252.343 181.447L252.493 181.535L252.666 181.511L270.289 178.993L270.39 178.92L292.39 162.92L292.611 162.759L292.595 162.486L291.095 136.986L291.085 136.822L290.979 136.695L278.479 121.695L278.33 121.516H254.999ZM235.003 49.5156L234.916 49.5488L215.416 57.0488L215.323 57.085L215.251 57.1533L204.751 67.1533L204.549 67.3457L204.606 67.6191L211.606 100.619L211.741 101.252L235.319 89.4629L235.4 89.4229L235.462 89.3564L255.462 67.8564L255.568 67.7412L255.591 67.5859L258.091 50.0859L258.172 49.5156H235.003ZM138.483 32.5283L125.483 35.5283L125.353 35.5586L125.254 35.6504L102.254 57.1504L102.21 57.1914L102.177 57.2422L86.1768 81.7422L86.8721 82.4326L123.872 57.9326L123.917 57.9023L123.954 57.8643L140.954 40.3643L141.156 40.1562L141.076 39.8779L139.076 32.8779L138.946 32.4219L138.483 32.5283Z" fill="white"/>
</g>
<path d="M20.5957 126.32C32.5567 121.903 49.3938 115.225 66.5957 107.611M66.5957 107.611C96.1341 94.5357 119.596 83.5659 136.596 68.0659C163.608 43.437 160.096 30.0659 155.096 23.8198C149.858 17.2765 134.471 7.41703 109.096 27.3198C80.0957 50.0659 62.5957 93.9017 66.5957 107.611ZM66.5957 107.611C67.0957 120.18 74.2957 142.189 109.096 140.189C152.596 137.689 195.556 98.1487 193.096 86.0659M193.096 86.0659C191.739 79.4041 195.667 98.6969 193.096 86.0659ZM193.096 86.0659C192.342 82.3622 188.781 67.3121 189.596 63.5659C192.477 50.3121 204.661 32.0659 246.096 32.0659C297.096 32.0659 268.435 75.5625 263.596 82.8198C254.096 97.0659 211.596 122.271 203.096 127.771C212.596 120.341 244.796 104.387 269.596 105.82C294.396 107.253 305.096 127.33 307.096 133.566C310.863 145.312 314.596 173.066 278.596 193.066C250.936 208.433 228.596 192.566 222.596 178.82C214.432 162.986 200.699 127.666 193.096 86.0659Z" stroke="#0051FF" stroke-width="18" stroke-linecap="round"/>
<circle cx="335.096" cy="192.066" r="6.5" fill="#0051FF"/>
<defs>
<filter id="filter0_d_45_11" x="321.096" y="183.016" width="31" height="27.5" filterUnits="userSpaceOnUse" color-interpolation-filters="sRGB">
<feFlood flood-opacity="0" result="BackgroundImageFix"/>
<feColorMatrix in="SourceAlpha" type="matrix" values="0 0 0 0 0 0 0 0 0 0 0 0 0 0 0 0 0 0 127 0" result="hardAlpha"/>
<feOffset dy="4"/>
<feGaussianBlur stdDeviation="2"/>
<feComposite in2="hardAlpha" operator="out"/>
<feColorMatrix type="matrix" values="0 0 0 0 0 0 0 0 0 0 0 0 0 0 0 0 0 0 0.25 0"/>
<feBlend mode="normal" in2="BackgroundImageFix" result="effect1_dropShadow_45_11"/>
<feBlend mode="normal" in="SourceGraphic" in2="effect1_dropShadow_45_11" result="shape"/>
</filter>
<filter id="filter1_d_45_11" x="0" y="0" width="329.605" height="225.031" filterUnits="userSpaceOnUse" color-interpolation-filters="sRGB">
<feFlood flood-opacity="0" result="BackgroundImageFix"/>
<feColorMatrix in="SourceAlpha" type="matrix" values="0 0 0 0 0 0 0 0 0 0 0 0 0 0 0 0 0 0 127 0" result="hardAlpha"/>
<feOffset dy="4"/>
<feGaussianBlur stdDeviation="2"/>
<feComposite in2="hardAlpha" operator="out"/>
<feColorMatrix type="matrix" values="0 0 0 0 0 0 0 0 0 0 0 0 0 0 0 0 0 0 0.25 0"/>
<feBlend mode="normal" in2="BackgroundImageFix" result="effect1_dropShadow_45_11"/>
<feBlend mode="normal" in="SourceGraphic" in2="effect1_dropShadow_45_11" result="shape"/>
</filter>
</defs>
</svg>
